<?xml version="1.0" encoding="UTF-8"?>
<svg xmlns="http://www.w3.org/2000/svg" xmlns:xlink="http://www.w3.org/1999/xlink" width="30px" height="30px" viewBox="0 0 30 30" version="1.1">
<g id="surface1">
<path style=" stroke:none;fill-rule:nonzero;fill:rgb(12.941176%,22.352941%,35.686275%);fill-opacity:1;" d="M 5.492188 3.402344 C 5.515625 3.414062 5.523438 3.421875 5.535156 3.441406 C 5.542969 3.449219 5.546875 3.457031 5.550781 3.460938 C 5.554688 3.46875 5.5625 3.476562 5.566406 3.484375 C 5.578125 3.5 5.585938 3.511719 5.597656 3.527344 C 5.601562 3.535156 5.609375 3.542969 5.613281 3.550781 C 5.636719 3.582031 5.65625 3.609375 5.679688 3.640625 C 5.714844 3.6875 5.753906 3.738281 5.789062 3.785156 C 5.835938 3.851562 5.886719 3.914062 5.933594 3.980469 C 5.972656 4.027344 6.007812 4.078125 6.042969 4.125 C 6.097656 4.199219 6.152344 4.273438 6.207031 4.34375 C 6.214844 4.351562 6.21875 4.359375 6.222656 4.367188 C 6.234375 4.378906 6.242188 4.390625 6.253906 4.402344 C 6.261719 4.414062 6.261719 4.414062 6.269531 4.421875 C 6.273438 4.425781 6.277344 4.433594 6.28125 4.4375 C 6.289062 4.453125 6.289062 4.453125 6.289062 4.46875 C 6.277344 4.496094 6.253906 4.511719 6.230469 4.53125 C 6.226562 4.535156 6.222656 4.539062 6.214844 4.542969 C 6.203125 4.554688 6.1875 4.566406 6.171875 4.578125 C 6.117188 4.621094 6.066406 4.667969 6.015625 4.714844 C 5.984375 4.738281 5.957031 4.765625 5.925781 4.789062 C 5.894531 4.816406 5.863281 4.84375 5.832031 4.875 C 5.816406 4.890625 5.800781 4.90625 5.785156 4.917969 C 5.742188 4.957031 5.699219 4.996094 5.65625 5.035156 C 5.632812 5.058594 5.613281 5.078125 5.589844 5.101562 C 5.496094 5.183594 5.410156 5.273438 5.320312 5.359375 C 5.296875 5.382812 5.273438 5.40625 5.25 5.429688 C 5.238281 5.445312 5.222656 5.460938 5.207031 5.476562 C 5.199219 5.480469 5.191406 5.488281 5.1875 5.496094 C 5.148438 5.53125 5.117188 5.566406 5.082031 5.605469 C 5.066406 5.625 5.050781 5.640625 5.03125 5.660156 C 5.003906 5.6875 4.980469 5.714844 4.953125 5.742188 C 4.929688 5.773438 4.902344 5.800781 4.875 5.828125 C 4.835938 5.871094 4.796875 5.914062 4.757812 5.960938 C 4.75 5.96875 4.742188 5.976562 4.734375 5.984375 C 4.722656 6 4.710938 6.015625 4.695312 6.03125 C 4.667969 6.0625 4.640625 6.09375 4.613281 6.125 C 4.570312 6.175781 4.53125 6.222656 4.488281 6.273438 C 4.472656 6.292969 4.457031 6.3125 4.441406 6.332031 C 4.382812 6.402344 4.324219 6.472656 4.269531 6.542969 C 4.257812 6.5625 4.242188 6.578125 4.230469 6.59375 C 4.121094 6.734375 4.019531 6.875 3.914062 7.015625 C 3.902344 7.035156 3.890625 7.050781 3.875 7.070312 C 3.804688 7.167969 3.738281 7.265625 3.675781 7.363281 C 3.65625 7.390625 3.640625 7.414062 3.621094 7.441406 C 3.308594 7.910156 3.03125 8.398438 2.777344 8.898438 C 2.773438 8.90625 2.769531 8.914062 2.761719 8.921875 C 2.695312 9.054688 2.632812 9.1875 2.574219 9.320312 C 2.566406 9.335938 2.566406 9.335938 2.558594 9.347656 C 2.210938 10.109375 1.941406 10.902344 1.449219 13.28125 C 1.445312 13.289062 1.445312 13.296875 1.445312 13.304688 C 1.402344 13.652344 1.371094 14 1.355469 14.34375 C 1.355469 14.359375 1.355469 14.371094 1.351562 14.386719 C 1.34375 14.566406 1.34375 14.75 1.34375 14.929688 C 1.34375 14.96875 1.34375 15.003906 1.34375 15.039062 C 1.34375 15.367188 1.351562 15.695312 1.378906 16.023438 C 1.378906 16.03125 1.378906 16.042969 1.378906 16.050781 C 1.394531 16.253906 1.414062 16.453125 1.4375 16.652344 C 1.441406 16.660156 1.441406 16.667969 1.441406 16.675781 C 1.550781 17.570312 1.75 18.453125 2.777344 21.105469 C 2.785156 21.117188 2.789062 21.132812 2.796875 21.144531 C 2.84375 21.242188 2.894531 21.332031 2.945312 21.425781 C 2.964844 21.460938 2.980469 21.496094 3 21.53125 C 3.0625 21.644531 3.125 21.757812 3.191406 21.871094 C 3.207031 21.894531 3.222656 21.921875 3.238281 21.949219 C 3.316406 22.082031 3.398438 22.214844 3.484375 22.34375 C 3.5 22.371094 3.519531 22.402344 3.535156 22.429688 C 3.667969 22.644531 3.820312 22.851562 3.96875 23.058594 C 3.976562 23.066406 3.980469 23.070312 3.984375 23.078125 C 4.050781 23.171875 4.121094 23.265625 4.195312 23.355469 C 4.207031 23.371094 4.21875 23.386719 4.230469 23.402344 C 4.285156 23.472656 4.339844 23.542969 4.398438 23.609375 C 4.410156 23.625 4.417969 23.636719 4.429688 23.652344 C 4.46875 23.699219 4.507812 23.742188 4.546875 23.789062 C 4.570312 23.816406 4.59375 23.847656 4.617188 23.875 C 4.652344 23.917969 4.683594 23.957031 4.71875 23.992188 C 4.738281 24.011719 4.753906 24.03125 4.769531 24.050781 C 4.796875 24.082031 4.828125 24.113281 4.855469 24.144531 C 4.867188 24.160156 4.882812 24.175781 4.894531 24.1875 C 4.992188 24.300781 4.992188 24.300781 5.097656 24.40625 C 5.113281 24.421875 5.125 24.4375 5.136719 24.453125 C 5.175781 24.496094 5.21875 24.539062 5.261719 24.578125 C 5.269531 24.585938 5.277344 24.597656 5.285156 24.605469 C 5.304688 24.621094 5.320312 24.640625 5.339844 24.65625 C 5.363281 24.679688 5.382812 24.703125 5.40625 24.726562 C 5.425781 24.742188 5.441406 24.761719 5.460938 24.777344 C 5.46875 24.785156 5.476562 24.792969 5.484375 24.800781 C 5.527344 24.84375 5.570312 24.886719 5.617188 24.925781 C 5.632812 24.941406 5.652344 24.957031 5.667969 24.976562 C 5.695312 25.003906 5.722656 25.03125 5.753906 25.054688 C 5.78125 25.078125 5.804688 25.105469 5.832031 25.128906 C 5.875 25.167969 5.917969 25.207031 5.960938 25.242188 C 5.96875 25.25 5.976562 25.257812 5.984375 25.265625 C 6 25.277344 6.015625 25.289062 6.03125 25.304688 C 6.0625 25.332031 6.09375 25.359375 6.125 25.386719 C 6.175781 25.429688 6.222656 25.46875 6.273438 25.511719 C 6.292969 25.527344 6.3125 25.542969 6.332031 25.558594 C 6.402344 25.617188 6.472656 25.675781 6.542969 25.730469 C 6.5625 25.742188 6.578125 25.757812 6.59375 25.769531 C 6.734375 25.878906 6.875 25.980469 7.015625 26.085938 C 7.035156 26.097656 7.050781 26.109375 7.070312 26.125 C 7.164062 26.195312 7.265625 26.257812 7.363281 26.324219 C 7.390625 26.34375 7.417969 26.363281 7.449219 26.382812 C 7.914062 26.695312 8.398438 26.96875 8.898438 27.222656 C 8.90625 27.226562 8.914062 27.230469 8.921875 27.238281 C 9.054688 27.304688 9.1875 27.367188 9.320312 27.425781 C 9.328125 27.429688 9.339844 27.4375 9.347656 27.441406 C 10.109375 27.789062 10.902344 28.058594 13.28125 28.550781 C 13.289062 28.554688 13.296875 28.554688 13.304688 28.554688 C 13.652344 28.597656 14 28.628906 14.347656 28.644531 C 14.359375 28.644531 14.371094 28.644531 14.386719 28.648438 C 14.570312 28.65625 14.753906 28.65625 14.933594 28.65625 C 14.972656 28.65625 15.007812 28.65625 15.042969 28.65625 C 15.371094 28.65625 15.695312 28.648438 16.023438 28.621094 C 16.03125 28.621094 16.042969 28.621094 16.050781 28.621094 C 16.25 28.605469 16.453125 28.585938 16.652344 28.5625 C 16.664062 28.558594 16.664062 28.558594 16.675781 28.558594 C 17.570312 28.449219 18.453125 28.25 21.101562 27.222656 C 21.117188 27.21875 21.117188 27.21875 21.128906 27.210938 C 21.230469 27.160156 21.328125 27.109375 21.425781 27.054688 C 21.460938 27.035156 21.496094 27.019531 21.527344 27 C 21.644531 26.9375 21.757812 26.875 21.871094 26.808594 C 21.894531 26.792969 21.921875 26.777344 21.949219 26.761719 C 22.082031 26.683594 22.214844 26.601562 22.34375 26.515625 C 22.378906 26.492188 22.414062 26.472656 22.453125 26.449219 C 22.480469 26.433594 22.507812 26.414062 22.539062 26.394531 C 22.542969 26.390625 22.550781 26.382812 22.554688 26.378906 C 22.566406 26.371094 22.578125 26.363281 22.589844 26.355469 C 22.632812 26.324219 22.632812 26.324219 22.652344 26.328125 C 22.671875 26.335938 22.679688 26.347656 22.695312 26.363281 C 22.699219 26.371094 22.703125 26.378906 22.707031 26.382812 C 22.714844 26.390625 22.71875 26.398438 22.722656 26.40625 C 22.734375 26.421875 22.746094 26.433594 22.753906 26.449219 C 22.761719 26.457031 22.765625 26.464844 22.773438 26.472656 C 22.796875 26.507812 22.820312 26.542969 22.847656 26.574219 C 22.851562 26.585938 22.851562 26.585938 22.859375 26.59375 C 22.902344 26.652344 22.949219 26.710938 22.992188 26.769531 C 23.035156 26.824219 23.074219 26.878906 23.117188 26.933594 C 23.15625 26.992188 23.203125 27.050781 23.246094 27.105469 C 23.289062 27.164062 23.332031 27.222656 23.375 27.28125 C 23.378906 27.289062 23.386719 27.292969 23.390625 27.300781 C 23.394531 27.304688 23.398438 27.3125 23.402344 27.316406 C 23.414062 27.332031 23.421875 27.34375 23.433594 27.355469 C 23.449219 27.375 23.449219 27.375 23.445312 27.390625 C 23.4375 27.414062 23.429688 27.421875 23.410156 27.433594 C 23.402344 27.4375 23.398438 27.441406 23.390625 27.445312 C 23.378906 27.453125 23.378906 27.453125 23.367188 27.460938 C 23.359375 27.464844 23.355469 27.46875 23.347656 27.472656 C 23.324219 27.488281 23.300781 27.503906 23.277344 27.519531 C 23.261719 27.53125 23.246094 27.539062 23.230469 27.550781 C 22.992188 27.703125 22.753906 27.851562 22.507812 27.992188 C 22.5 28 22.488281 28.003906 22.480469 28.011719 C 22.28125 28.125 22.078125 28.234375 21.875 28.339844 C 21.839844 28.359375 21.800781 28.378906 21.761719 28.398438 C 21.558594 28.507812 21.347656 28.601562 21.136719 28.695312 C 21.121094 28.703125 21.105469 28.710938 21.085938 28.71875 C 20.363281 29.042969 19.613281 29.304688 15.855469 29.980469 C 15.832031 29.984375 15.804688 29.984375 15.78125 29.984375 C 15.257812 30.019531 14.71875 30.019531 14.195312 29.984375 C 14.167969 29.984375 14.140625 29.980469 14.113281 29.980469 C 13.136719 29.921875 12.167969 29.769531 8.878906 28.703125 C 8.875 28.703125 8.867188 28.699219 8.863281 28.695312 C 8.492188 28.53125 8.125 28.351562 7.769531 28.15625 C 7.757812 28.148438 7.757812 28.148438 7.746094 28.140625 C 7.617188 28.070312 7.488281 27.992188 7.359375 27.917969 C 7.332031 27.902344 7.304688 27.882812 7.277344 27.867188 C 7.167969 27.804688 7.0625 27.738281 6.957031 27.671875 C 6.929688 27.652344 6.90625 27.636719 6.878906 27.621094 C 6.773438 27.554688 6.664062 27.484375 6.558594 27.410156 C 6.542969 27.398438 6.527344 27.386719 6.511719 27.375 C 6.429688 27.316406 6.34375 27.261719 6.261719 27.199219 C 6.246094 27.1875 6.230469 27.175781 6.210938 27.164062 C 6.121094 27.097656 6.027344 27.03125 5.9375 26.960938 C 5.917969 26.945312 5.898438 26.929688 5.878906 26.914062 C 5.769531 26.832031 5.664062 26.75 5.5625 26.664062 C 5.546875 26.652344 5.53125 26.640625 5.515625 26.625 C 5.507812 26.621094 5.5 26.613281 5.492188 26.609375 C 5.476562 26.59375 5.460938 26.582031 5.445312 26.570312 C 5.386719 26.523438 5.328125 26.472656 5.273438 26.425781 C 5.257812 26.410156 5.242188 26.398438 5.226562 26.382812 C 5.175781 26.339844 5.121094 26.296875 5.074219 26.25 C 5.054688 26.234375 5.039062 26.21875 5.019531 26.203125 C 4.988281 26.175781 4.957031 26.144531 4.921875 26.117188 C 4.898438 26.09375 4.871094 26.066406 4.84375 26.042969 C 4.765625 25.972656 4.6875 25.902344 4.617188 25.828125 C 4.597656 25.8125 4.582031 25.796875 4.566406 25.785156 C 4.527344 25.75 4.488281 25.710938 4.453125 25.675781 C 4.445312 25.667969 4.4375 25.660156 4.429688 25.652344 C 4.414062 25.636719 4.402344 25.625 4.386719 25.609375 C 4.363281 25.585938 4.339844 25.5625 4.316406 25.539062 C 4.304688 25.527344 4.289062 25.511719 4.273438 25.496094 C 4.265625 25.492188 4.261719 25.484375 4.253906 25.476562 C 4.21875 25.441406 4.183594 25.40625 4.152344 25.367188 C 4.132812 25.34375 4.109375 25.324219 4.089844 25.300781 C 4.054688 25.269531 4.023438 25.234375 3.992188 25.199219 C 3.96875 25.171875 3.941406 25.144531 3.914062 25.117188 C 3.878906 25.078125 3.839844 25.035156 3.804688 24.996094 C 3.789062 24.976562 3.773438 24.957031 3.753906 24.941406 C 3.730469 24.910156 3.703125 24.878906 3.679688 24.847656 C 3.652344 24.816406 3.625 24.785156 3.597656 24.757812 C 3.5625 24.71875 3.53125 24.679688 3.5 24.640625 C 3.476562 24.613281 3.453125 24.585938 3.433594 24.5625 C 3.398438 24.523438 3.367188 24.484375 3.335938 24.445312 C 3.324219 24.425781 3.308594 24.410156 3.296875 24.394531 C 3.246094 24.332031 3.195312 24.269531 3.148438 24.207031 C 3.121094 24.167969 3.089844 24.132812 3.0625 24.09375 C 3.007812 24.027344 2.957031 23.957031 2.90625 23.882812 C 2.882812 23.851562 2.859375 23.816406 2.832031 23.785156 C 2.785156 23.71875 2.738281 23.652344 2.691406 23.585938 C 2.671875 23.558594 2.652344 23.53125 2.632812 23.503906 C 2.566406 23.40625 2.5 23.308594 2.433594 23.207031 C 2.417969 23.183594 2.402344 23.160156 2.386719 23.132812 C 2.132812 22.734375 1.890625 22.324219 1.675781 21.902344 C 1.660156 21.875 1.644531 21.847656 1.628906 21.816406 C 1.582031 21.726562 1.535156 21.636719 1.492188 21.546875 C 1.488281 21.539062 1.484375 21.535156 1.480469 21.527344 C 1.417969 21.390625 1.355469 21.257812 1.296875 21.121094 C 1.28125 21.082031 1.261719 21.046875 1.246094 21.007812 C 1.1875 20.875 1.128906 20.742188 1.078125 20.605469 C 1.070312 20.59375 1.070312 20.59375 1.066406 20.578125 C 0.992188 20.390625 0.921875 20.207031 0.855469 20.019531 C 0.851562 20.011719 0.847656 20.003906 0.847656 19.996094 C 0.546875 19.140625 0.316406 18.261719 0.0195312 15.863281 C 0.0195312 15.851562 0.0195312 15.84375 0.015625 15.835938 C 0.015625 15.773438 0.0117188 15.710938 0.0078125 15.652344 C 0.0078125 15.644531 0.0078125 15.632812 0.0078125 15.625 C -0.00390625 15.421875 0 15.214844 0 15.011719 C 0 15.003906 0 14.992188 0 14.984375 C 0 14.722656 0 14.457031 0.015625 14.195312 C 0.015625 14.167969 0.0195312 14.140625 0.0195312 14.113281 C 0.078125 13.136719 0.230469 12.167969 1.398438 8.660156 C 1.402344 8.648438 1.40625 8.636719 1.414062 8.625 C 1.511719 8.410156 1.617188 8.199219 1.726562 7.992188 C 1.730469 7.984375 1.734375 7.972656 1.742188 7.964844 C 1.808594 7.835938 1.882812 7.703125 1.957031 7.578125 C 1.960938 7.566406 1.964844 7.558594 1.96875 7.550781 C 2.046875 7.417969 2.121094 7.289062 2.199219 7.160156 C 2.207031 7.152344 2.210938 7.144531 2.214844 7.136719 C 2.484375 6.703125 2.769531 6.285156 3.082031 5.882812 C 3.089844 5.871094 3.101562 5.859375 3.109375 5.847656 C 3.136719 5.8125 3.160156 5.78125 3.1875 5.75 C 3.195312 5.738281 3.203125 5.726562 3.210938 5.714844 C 3.296875 5.605469 3.382812 5.5 3.472656 5.398438 C 3.496094 5.367188 3.519531 5.339844 3.542969 5.3125 C 3.609375 5.226562 3.683594 5.144531 3.757812 5.066406 C 3.777344 5.042969 3.800781 5.019531 3.820312 4.996094 C 3.9375 4.863281 4.054688 4.730469 4.179688 4.605469 C 4.195312 4.589844 4.210938 4.574219 4.226562 4.558594 C 4.257812 4.519531 4.292969 4.484375 4.328125 4.449219 C 4.335938 4.441406 4.34375 4.433594 4.351562 4.425781 C 4.363281 4.414062 4.378906 4.398438 4.390625 4.382812 C 4.414062 4.363281 4.433594 4.34375 4.457031 4.320312 C 4.46875 4.304688 4.484375 4.292969 4.5 4.277344 C 4.507812 4.269531 4.507812 4.269531 4.515625 4.261719 C 4.550781 4.226562 4.585938 4.191406 4.625 4.160156 C 4.648438 4.140625 4.667969 4.117188 4.691406 4.097656 C 4.722656 4.0625 4.753906 4.03125 4.789062 4.003906 C 4.820312 3.976562 4.851562 3.949219 4.878906 3.917969 C 4.921875 3.878906 4.960938 3.84375 5.003906 3.804688 C 5.023438 3.789062 5.042969 3.773438 5.058594 3.753906 C 5.097656 3.722656 5.136719 3.691406 5.175781 3.660156 C 5.195312 3.640625 5.21875 3.621094 5.238281 3.601562 C 5.277344 3.570312 5.3125 3.539062 5.351562 3.507812 C 5.367188 3.492188 5.386719 3.480469 5.402344 3.464844 C 5.40625 3.460938 5.410156 3.457031 5.417969 3.453125 C 5.429688 3.441406 5.441406 3.429688 5.453125 3.417969 C 5.476562 3.402344 5.476562 3.402344 5.492188 3.402344 Z M 5.492188 3.402344 "/>
<path style=" stroke:none;fill-rule:nonzero;fill:rgb(62.352941%,29.411765%,34.509804%);fill-opacity:1;" d="M 15.804688 0.015625 C 15.832031 0.015625 15.859375 0.0195312 15.886719 0.0195312 C 16.863281 0.078125 17.832031 0.230469 21.121094 1.296875 C 21.125 1.296875 21.132812 1.300781 21.136719 1.304688 C 21.507812 1.46875 21.875 1.648438 22.230469 1.84375 C 22.238281 1.851562 22.246094 1.855469 22.253906 1.859375 C 22.382812 1.929688 22.511719 2.007812 22.640625 2.082031 C 22.667969 2.097656 22.695312 2.117188 22.722656 2.132812 C 22.832031 2.195312 22.9375 2.261719 23.042969 2.328125 C 23.070312 2.347656 23.09375 2.363281 23.121094 2.378906 C 23.226562 2.445312 23.335938 2.515625 23.441406 2.589844 C 23.457031 2.601562 23.472656 2.613281 23.488281 2.625 C 23.570312 2.683594 23.65625 2.738281 23.738281 2.800781 C 23.753906 2.8125 23.769531 2.824219 23.789062 2.835938 C 23.878906 2.902344 23.972656 2.96875 24.0625 3.039062 C 24.082031 3.054688 24.101562 3.070312 24.121094 3.085938 C 24.230469 3.167969 24.335938 3.25 24.4375 3.335938 C 24.453125 3.347656 24.46875 3.359375 24.484375 3.375 C 24.492188 3.378906 24.5 3.386719 24.507812 3.390625 C 24.523438 3.40625 24.539062 3.417969 24.554688 3.429688 C 24.613281 3.476562 24.671875 3.527344 24.726562 3.574219 C 24.742188 3.589844 24.757812 3.601562 24.773438 3.617188 C 24.824219 3.660156 24.878906 3.703125 24.925781 3.75 C 24.945312 3.765625 24.960938 3.78125 24.980469 3.796875 C 25.011719 3.824219 25.042969 3.855469 25.078125 3.882812 C 25.101562 3.90625 25.128906 3.933594 25.15625 3.957031 C 25.234375 4.027344 25.3125 4.097656 25.382812 4.171875 C 25.402344 4.1875 25.417969 4.203125 25.433594 4.214844 C 25.472656 4.25 25.511719 4.289062 25.546875 4.324219 C 25.554688 4.332031 25.5625 4.339844 25.570312 4.347656 C 25.585938 4.363281 25.597656 4.375 25.613281 4.390625 C 25.636719 4.414062 25.660156 4.4375 25.683594 4.460938 C 25.695312 4.472656 25.710938 4.488281 25.726562 4.503906 C 25.734375 4.507812 25.738281 4.515625 25.746094 4.523438 C 25.78125 4.558594 25.816406 4.59375 25.847656 4.632812 C 25.867188 4.65625 25.890625 4.675781 25.910156 4.699219 C 25.945312 4.730469 25.976562 4.765625 26.007812 4.800781 C 26.03125 4.828125 26.058594 4.855469 26.085938 4.882812 C 26.121094 4.921875 26.160156 4.964844 26.195312 5.003906 C 26.210938 5.023438 26.226562 5.042969 26.246094 5.058594 C 26.269531 5.089844 26.296875 5.121094 26.320312 5.152344 C 26.347656 5.183594 26.375 5.214844 26.402344 5.242188 C 26.4375 5.28125 26.46875 5.320312 26.5 5.359375 C 26.523438 5.386719 26.546875 5.414062 26.566406 5.4375 C 26.601562 5.476562 26.632812 5.515625 26.664062 5.554688 C 26.675781 5.574219 26.691406 5.589844 26.703125 5.605469 C 26.753906 5.667969 26.804688 5.730469 26.851562 5.792969 C 26.878906 5.832031 26.910156 5.867188 26.9375 5.90625 C 26.992188 5.972656 27.042969 6.042969 27.09375 6.117188 C 27.117188 6.148438 27.140625 6.183594 27.167969 6.214844 C 27.214844 6.28125 27.261719 6.347656 27.308594 6.414062 C 27.328125 6.441406 27.347656 6.46875 27.367188 6.496094 C 27.433594 6.59375 27.5 6.691406 27.566406 6.792969 C 27.582031 6.816406 27.597656 6.839844 27.613281 6.867188 C 27.867188 7.265625 28.109375 7.675781 28.324219 8.097656 C 28.339844 8.125 28.355469 8.152344 28.371094 8.183594 C 28.417969 8.273438 28.464844 8.363281 28.507812 8.453125 C 28.511719 8.460938 28.511719 8.460938 28.519531 8.472656 C 28.582031 8.609375 28.644531 8.742188 28.703125 8.878906 C 28.71875 8.917969 28.738281 8.953125 28.753906 8.992188 C 28.8125 9.125 28.871094 9.257812 28.921875 9.394531 C 28.925781 9.402344 28.929688 9.414062 28.933594 9.421875 C 29.007812 9.609375 29.078125 9.792969 29.144531 9.980469 C 29.148438 9.988281 29.152344 9.996094 29.152344 10.003906 C 29.453125 10.859375 29.683594 11.738281 29.980469 14.136719 C 29.980469 14.148438 29.980469 14.15625 29.984375 14.164062 C 29.984375 14.226562 29.988281 14.289062 29.992188 14.347656 C 29.992188 14.355469 29.992188 14.367188 29.992188 14.375 C 30.003906 14.578125 30 14.785156 30 14.988281 C 30 14.996094 30 15.007812 30 15.015625 C 30 15.277344 30 15.542969 29.984375 15.804688 C 29.984375 15.832031 29.980469 15.859375 29.980469 15.886719 C 29.921875 16.863281 29.769531 17.832031 28.601562 21.339844 C 28.597656 21.351562 28.59375 21.363281 28.585938 21.375 C 28.488281 21.589844 28.382812 21.800781 28.273438 22.007812 C 28.269531 22.015625 28.265625 22.027344 28.257812 22.035156 C 28.191406 22.164062 28.117188 22.296875 28.042969 22.421875 C 28.039062 22.433594 28.035156 22.441406 28.03125 22.449219 C 27.953125 22.582031 27.878906 22.710938 27.800781 22.839844 C 27.792969 22.847656 27.789062 22.855469 27.785156 22.863281 C 27.519531 23.289062 27.238281 23.707031 26.929688 24.101562 C 26.917969 24.117188 26.902344 24.136719 26.890625 24.152344 C 26.839844 24.222656 26.785156 24.289062 26.730469 24.355469 C 26.699219 24.390625 26.671875 24.429688 26.644531 24.464844 C 26.609375 24.511719 26.570312 24.554688 26.53125 24.597656 C 26.507812 24.628906 26.480469 24.660156 26.457031 24.691406 C 26.425781 24.726562 26.394531 24.761719 26.363281 24.796875 C 26.34375 24.820312 26.324219 24.839844 26.308594 24.863281 C 26.269531 24.914062 26.226562 24.957031 26.183594 25.003906 C 26.164062 25.023438 26.144531 25.042969 26.125 25.066406 C 26.089844 25.109375 26.050781 25.152344 26.011719 25.195312 C 25.996094 25.210938 25.980469 25.226562 25.964844 25.242188 C 25.917969 25.296875 25.867188 25.347656 25.8125 25.398438 C 25.796875 25.417969 25.78125 25.433594 25.765625 25.449219 C 25.734375 25.488281 25.699219 25.523438 25.664062 25.558594 C 25.65625 25.566406 25.652344 25.574219 25.644531 25.578125 C 25.628906 25.59375 25.617188 25.605469 25.601562 25.621094 C 25.582031 25.640625 25.5625 25.660156 25.539062 25.683594 C 25.527344 25.695312 25.511719 25.710938 25.5 25.722656 C 25.492188 25.730469 25.492188 25.730469 25.480469 25.742188 C 25.449219 25.773438 25.414062 25.808594 25.375 25.839844 C 25.351562 25.859375 25.332031 25.882812 25.308594 25.902344 C 25.277344 25.9375 25.246094 25.96875 25.210938 25.996094 C 25.179688 26.023438 25.148438 26.050781 25.121094 26.082031 C 25.078125 26.121094 25.039062 26.15625 24.996094 26.195312 C 24.976562 26.210938 24.957031 26.226562 24.941406 26.246094 C 24.902344 26.277344 24.863281 26.308594 24.824219 26.339844 C 24.804688 26.359375 24.78125 26.378906 24.761719 26.398438 C 24.722656 26.429688 24.6875 26.460938 24.648438 26.492188 C 24.632812 26.507812 24.613281 26.519531 24.597656 26.535156 C 24.59375 26.539062 24.589844 26.542969 24.582031 26.546875 C 24.570312 26.558594 24.558594 26.570312 24.546875 26.582031 C 24.523438 26.597656 24.523438 26.597656 24.507812 26.59375 C 24.484375 26.585938 24.476562 26.578125 24.464844 26.558594 C 24.457031 26.550781 24.457031 26.550781 24.449219 26.539062 C 24.445312 26.53125 24.441406 26.527344 24.4375 26.519531 C 24.425781 26.503906 24.414062 26.488281 24.402344 26.472656 C 24.398438 26.464844 24.394531 26.457031 24.386719 26.449219 C 24.359375 26.414062 24.335938 26.378906 24.308594 26.34375 C 24.265625 26.289062 24.226562 26.234375 24.183594 26.179688 C 24.136719 26.113281 24.089844 26.050781 24.039062 25.984375 C 24 25.929688 23.957031 25.875 23.917969 25.820312 C 23.863281 25.746094 23.804688 25.671875 23.75 25.597656 C 23.746094 25.59375 23.742188 25.585938 23.734375 25.582031 C 23.730469 25.570312 23.730469 25.570312 23.722656 25.5625 C 23.710938 25.546875 23.710938 25.546875 23.710938 25.53125 C 23.722656 25.503906 23.746094 25.488281 23.769531 25.46875 C 23.773438 25.464844 23.777344 25.460938 23.785156 25.457031 C 23.796875 25.445312 23.8125 25.433594 23.828125 25.421875 C 23.882812 25.378906 23.933594 25.332031 23.984375 25.285156 C 24.015625 25.261719 24.042969 25.234375 24.074219 25.210938 C 24.105469 25.183594 24.136719 25.15625 24.167969 25.125 C 24.183594 25.109375 24.199219 25.09375 24.214844 25.082031 C 24.257812 25.042969 24.300781 25.003906 24.34375 24.964844 C 24.367188 24.941406 24.386719 24.921875 24.410156 24.898438 C 24.503906 24.816406 24.589844 24.726562 24.679688 24.640625 C 24.703125 24.617188 24.726562 24.59375 24.75 24.570312 C 24.761719 24.554688 24.777344 24.539062 24.792969 24.523438 C 24.800781 24.519531 24.808594 24.511719 24.8125 24.503906 C 24.851562 24.46875 24.882812 24.433594 24.917969 24.394531 C 24.933594 24.375 24.949219 24.359375 24.96875 24.339844 C 24.996094 24.3125 25.019531 24.285156 25.046875 24.253906 C 25.070312 24.226562 25.097656 24.199219 25.125 24.171875 C 25.164062 24.128906 25.203125 24.085938 25.242188 24.039062 C 25.261719 24.011719 25.285156 23.984375 25.308594 23.960938 C 25.347656 23.921875 25.382812 23.878906 25.417969 23.835938 C 25.441406 23.808594 25.464844 23.78125 25.488281 23.753906 C 25.523438 23.710938 25.5625 23.667969 25.597656 23.621094 C 25.625 23.582031 25.660156 23.542969 25.691406 23.503906 C 25.734375 23.453125 25.773438 23.402344 25.8125 23.347656 C 25.847656 23.304688 25.878906 23.261719 25.914062 23.21875 C 25.957031 23.160156 26 23.101562 26.042969 23.039062 C 26.054688 23.023438 26.070312 23.003906 26.082031 22.988281 C 26.089844 22.980469 26.089844 22.980469 26.097656 22.96875 C 26.105469 22.957031 26.113281 22.945312 26.121094 22.933594 C 26.207031 22.816406 26.285156 22.695312 26.367188 22.574219 C 26.371094 22.566406 26.375 22.5625 26.382812 22.554688 C 26.691406 22.085938 26.96875 21.601562 27.222656 21.101562 C 27.226562 21.09375 27.230469 21.085938 27.238281 21.078125 C 27.304688 20.945312 27.367188 20.8125 27.425781 20.679688 C 27.429688 20.671875 27.4375 20.660156 27.441406 20.652344 C 27.789062 19.890625 28.058594 19.097656 28.550781 16.71875 C 28.554688 16.710938 28.554688 16.703125 28.554688 16.695312 C 28.597656 16.347656 28.628906 16 28.644531 15.65625 C 28.644531 15.640625 28.644531 15.628906 28.648438 15.613281 C 28.65625 15.433594 28.65625 15.25 28.65625 15.070312 C 28.65625 15.03125 28.65625 14.996094 28.65625 14.960938 C 28.65625 14.632812 28.648438 14.304688 28.621094 13.976562 C 28.621094 13.96875 28.621094 13.957031 28.621094 13.949219 C 28.605469 13.746094 28.585938 13.546875 28.5625 13.347656 C 28.558594 13.335938 28.558594 13.335938 28.558594 13.324219 C 28.449219 12.429688 28.25 11.546875 27.222656 8.894531 C 27.214844 8.882812 27.210938 8.867188 27.203125 8.855469 C 27.15625 8.757812 27.105469 8.667969 27.054688 8.574219 C 27.035156 8.539062 27.019531 8.503906 27 8.46875 C 26.9375 8.355469 26.875 8.242188 26.808594 8.128906 C 26.792969 8.105469 26.777344 8.078125 26.761719 8.050781 C 26.683594 7.917969 26.601562 7.785156 26.515625 7.65625 C 26.5 7.628906 26.480469 7.597656 26.464844 7.570312 C 26.332031 7.355469 26.179688 7.148438 26.03125 6.941406 C 26.023438 6.929688 26.023438 6.929688 26.015625 6.921875 C 25.949219 6.828125 25.878906 6.734375 25.804688 6.644531 C 25.792969 6.628906 25.78125 6.613281 25.769531 6.597656 C 25.714844 6.527344 25.660156 6.457031 25.601562 6.390625 C 25.589844 6.375 25.582031 6.363281 25.570312 6.347656 C 25.53125 6.300781 25.492188 6.257812 25.453125 6.210938 C 25.429688 6.183594 25.40625 6.152344 25.382812 6.125 C 25.347656 6.082031 25.316406 6.042969 25.28125 6.007812 C 25.261719 5.988281 25.246094 5.96875 25.230469 5.949219 C 25.203125 5.917969 25.171875 5.886719 25.144531 5.855469 C 25.132812 5.839844 25.117188 5.824219 25.105469 5.8125 C 25.007812 5.699219 25.007812 5.699219 24.902344 5.59375 C 24.886719 5.578125 24.875 5.5625 24.863281 5.546875 C 24.824219 5.503906 24.78125 5.460938 24.738281 5.421875 C 24.730469 5.414062 24.722656 5.402344 24.714844 5.394531 C 24.695312 5.378906 24.679688 5.359375 24.660156 5.34375 C 24.636719 5.320312 24.617188 5.296875 24.59375 5.273438 C 24.574219 5.257812 24.558594 5.238281 24.539062 5.222656 C 24.53125 5.214844 24.523438 5.207031 24.515625 5.199219 C 24.472656 5.15625 24.429688 5.113281 24.382812 5.074219 C 24.367188 5.058594 24.351562 5.042969 24.335938 5.027344 C 24.3125 5.003906 24.285156 4.976562 24.257812 4.953125 C 24.226562 4.929688 24.199219 4.902344 24.171875 4.875 C 24.128906 4.835938 24.085938 4.796875 24.039062 4.757812 C 24.03125 4.75 24.023438 4.742188 24.015625 4.734375 C 24 4.722656 23.984375 4.710938 23.96875 4.695312 C 23.9375 4.667969 23.90625 4.640625 23.875 4.613281 C 23.824219 4.570312 23.777344 4.53125 23.726562 4.488281 C 23.707031 4.472656 23.6875 4.457031 23.667969 4.441406 C 23.597656 4.382812 23.527344 4.324219 23.457031 4.269531 C 23.4375 4.257812 23.421875 4.242188 23.40625 4.230469 C 23.265625 4.121094 23.125 4.019531 22.984375 3.914062 C 22.964844 3.902344 22.949219 3.890625 22.929688 3.875 C 22.835938 3.804688 22.734375 3.742188 22.636719 3.675781 C 22.609375 3.65625 22.582031 3.636719 22.550781 3.617188 C 22.085938 3.304688 21.601562 3.03125 21.101562 2.777344 C 21.09375 2.773438 21.085938 2.769531 21.078125 2.761719 C 20.945312 2.695312 20.8125 2.632812 20.679688 2.574219 C 20.671875 2.570312 20.660156 2.5625 20.652344 2.558594 C 19.890625 2.210938 19.097656 1.941406 16.71875 1.449219 C 16.710938 1.445312 16.703125 1.445312 16.695312 1.445312 C 16.347656 1.402344 16 1.371094 15.652344 1.355469 C 15.640625 1.355469 15.628906 1.355469 15.613281 1.351562 C 15.429688 1.34375 15.246094 1.34375 15.066406 1.34375 C 15.027344 1.34375 14.992188 1.34375 14.957031 1.34375 C 14.628906 1.34375 14.304688 1.351562 13.976562 1.378906 C 13.96875 1.378906 13.957031 1.378906 13.949219 1.378906 C 13.75 1.394531 13.546875 1.414062 13.347656 1.4375 C 13.339844 1.441406 13.332031 1.441406 13.324219 1.441406 C 12.429688 1.550781 11.546875 1.75 8.898438 2.777344 C 8.886719 2.78125 8.878906 2.785156 8.871094 2.789062 C 8.769531 2.839844 8.671875 2.890625 8.574219 2.945312 C 8.539062 2.964844 8.503906 2.980469 8.472656 3 C 8.355469 3.0625 8.242188 3.125 8.128906 3.191406 C 8.105469 3.207031 8.078125 3.222656 8.050781 3.238281 C 7.917969 3.316406 7.785156 3.398438 7.65625 3.484375 C 7.621094 3.507812 7.585938 3.527344 7.546875 3.550781 C 7.519531 3.566406 7.492188 3.585938 7.460938 3.605469 C 7.457031 3.609375 7.449219 3.617188 7.445312 3.621094 C 7.433594 3.628906 7.421875 3.636719 7.410156 3.644531 C 7.367188 3.675781 7.367188 3.675781 7.347656 3.671875 C 7.324219 3.664062 7.320312 3.652344 7.304688 3.632812 C 7.300781 3.628906 7.296875 3.621094 7.289062 3.613281 C 7.285156 3.605469 7.28125 3.601562 7.277344 3.59375 C 7.265625 3.578125 7.253906 3.5625 7.242188 3.546875 C 7.238281 3.539062 7.234375 3.535156 7.226562 3.527344 C 7.207031 3.496094 7.183594 3.464844 7.160156 3.4375 C 7.125 3.386719 7.089844 3.339844 7.054688 3.292969 C 7.003906 3.226562 6.957031 3.160156 6.90625 3.097656 C 6.871094 3.046875 6.832031 3 6.796875 2.949219 C 6.742188 2.875 6.6875 2.804688 6.632812 2.730469 C 6.628906 2.726562 6.621094 2.71875 6.617188 2.710938 C 6.609375 2.699219 6.597656 2.683594 6.585938 2.671875 C 6.582031 2.667969 6.578125 2.660156 6.574219 2.65625 C 6.566406 2.648438 6.566406 2.648438 6.558594 2.640625 C 6.550781 2.625 6.550781 2.625 6.554688 2.609375 C 6.5625 2.585938 6.570312 2.578125 6.589844 2.566406 C 6.597656 2.5625 6.601562 2.558594 6.609375 2.554688 C 6.617188 2.550781 6.625 2.546875 6.632812 2.539062 C 6.640625 2.535156 6.640625 2.535156 6.652344 2.527344 C 6.675781 2.511719 6.699219 2.496094 6.722656 2.480469 C 6.738281 2.46875 6.753906 2.460938 6.769531 2.449219 C 7.007812 2.296875 7.246094 2.148438 7.492188 2.007812 C 7.5 2 7.511719 1.996094 7.519531 1.988281 C 7.71875 1.875 7.921875 1.765625 8.125 1.660156 C 8.160156 1.640625 8.199219 1.621094 8.238281 1.601562 C 8.441406 1.492188 8.652344 1.398438 8.863281 1.304688 C 8.878906 1.296875 8.894531 1.289062 8.914062 1.28125 C 9.636719 0.957031 10.386719 0.695312 14.144531 0.0195312 C 14.167969 0.015625 14.195312 0.015625 14.21875 0.015625 C 14.742188 -0.0195312 15.28125 -0.0195312 15.804688 0.015625 Z M 15.804688 0.015625 "/>
<path style=" stroke:none;fill-rule:nonzero;fill:rgb(12.941176%,22.352941%,35.686275%);fill-opacity:1;" d="M 14.9375 10.984375 C 14.941406 10.984375 14.949219 10.984375 14.957031 10.984375 C 14.980469 10.984375 15.003906 10.984375 15.027344 10.984375 C 15.035156 10.984375 15.042969 10.984375 15.050781 10.984375 C 15.167969 10.984375 15.277344 10.988281 15.390625 11.011719 C 15.394531 11.015625 15.402344 11.015625 15.410156 11.015625 C 15.71875 11.078125 15.972656 11.230469 16.203125 11.445312 C 16.207031 11.449219 16.214844 11.457031 16.21875 11.460938 C 16.785156 12.007812 16.914062 12.910156 17.023438 13.832031 C 17.023438 13.839844 17.023438 13.847656 17.023438 13.851562 C 17.046875 14.050781 17.050781 14.25 17.050781 14.449219 C 17.050781 14.460938 17.050781 14.46875 17.050781 14.480469 C 17.050781 14.679688 17.042969 14.875 17.015625 15.070312 C 17.015625 15.078125 17.015625 15.078125 17.015625 15.085938 C 16.9375 15.699219 16.738281 16.300781 16.472656 16.855469 C 16.46875 16.863281 16.464844 16.871094 16.460938 16.878906 C 16.394531 17.015625 16.320312 17.148438 16.246094 17.277344 C 16.234375 17.289062 16.226562 17.304688 16.21875 17.316406 C 16.109375 17.503906 15.984375 17.679688 15.847656 17.84375 C 15.839844 17.851562 15.832031 17.863281 15.824219 17.871094 C 15.78125 17.921875 15.738281 17.96875 15.695312 18.015625 C 15.683594 18.03125 15.671875 18.042969 15.660156 18.058594 C 15.613281 18.109375 15.566406 18.15625 15.519531 18.207031 C 15.507812 18.21875 15.496094 18.230469 15.484375 18.242188 C 15.4375 18.285156 15.394531 18.328125 15.347656 18.367188 C 15.332031 18.382812 15.320312 18.394531 15.304688 18.40625 C 15.03125 18.65625 14.714844 18.859375 14.390625 19.039062 C 14.378906 19.042969 14.378906 19.042969 14.367188 19.050781 C 13.722656 19.40625 13.023438 19.660156 10.84375 19.984375 C 10.835938 19.984375 10.835938 19.984375 10.828125 19.984375 C 10.128906 19.996094 9.414062 19.929688 8.644531 19.679688 C 8.632812 19.679688 8.625 19.675781 8.613281 19.671875 C 8.019531 19.472656 7.46875 19.140625 7.007812 18.714844 C 6.988281 18.695312 6.972656 18.679688 6.953125 18.664062 C 6.917969 18.632812 6.882812 18.601562 6.851562 18.566406 C 6.839844 18.558594 6.839844 18.558594 6.832031 18.550781 C 6.820312 18.535156 6.808594 18.523438 6.792969 18.511719 C 6.777344 18.492188 6.757812 18.472656 6.738281 18.453125 C 6.726562 18.441406 6.714844 18.429688 6.699219 18.417969 C 6.695312 18.414062 6.691406 18.40625 6.683594 18.402344 C 6.652344 18.367188 6.621094 18.335938 6.589844 18.300781 C 6.574219 18.277344 6.554688 18.257812 6.535156 18.238281 C 6.5 18.203125 6.46875 18.164062 6.4375 18.121094 C 6.417969 18.101562 6.402344 18.082031 6.382812 18.058594 C 6.328125 17.996094 6.277344 17.929688 6.226562 17.863281 C 6.214844 17.84375 6.199219 17.828125 6.1875 17.808594 C 6.074219 17.664062 5.976562 17.511719 5.882812 17.351562 C 5.878906 17.34375 5.875 17.335938 5.871094 17.328125 C 5.628906 16.914062 5.433594 16.46875 5.300781 16.007812 C 5.296875 15.996094 5.292969 15.988281 5.289062 15.976562 C 5.234375 15.785156 5.199219 15.589844 5.164062 15.394531 C 5.164062 15.386719 5.164062 15.378906 5.160156 15.375 C 5.105469 15.058594 5.058594 14.75 5.058594 14.433594 C 5.058594 14.421875 5.058594 14.414062 5.058594 14.402344 C 5.058594 14.25 5.066406 14.101562 5.085938 13.949219 C 5.089844 13.9375 5.089844 13.9375 5.089844 13.921875 C 5.148438 13.511719 5.332031 13.105469 5.667969 12.847656 C 5.964844 12.628906 6.292969 12.515625 6.652344 12.460938 C 6.664062 12.460938 6.671875 12.457031 6.679688 12.457031 C 7.015625 12.40625 7.375 12.417969 7.707031 12.457031 C 7.730469 12.460938 7.75 12.464844 7.773438 12.464844 C 8.230469 12.515625 8.675781 12.613281 9.125 12.710938 C 9.5 12.796875 9.5 12.796875 9.878906 12.867188 C 9.890625 12.867188 9.898438 12.871094 9.910156 12.871094 C 10.175781 12.910156 10.453125 12.902344 10.714844 12.867188 C 10.726562 12.867188 10.738281 12.863281 10.75 12.863281 C 11.097656 12.8125 11.398438 12.683594 11.699219 12.507812 C 11.722656 12.496094 11.746094 12.480469 11.769531 12.46875 C 11.875 12.410156 11.976562 12.347656 12.078125 12.28125 C 12.121094 12.253906 12.164062 12.226562 12.210938 12.199219 C 12.308594 12.136719 12.40625 12.074219 12.507812 12.011719 C 13.835938 11.167969 13.835938 11.167969 14.9375 10.984375 Z M 14.40625 11.84375 C 14.402344 11.84375 14.398438 11.847656 14.390625 11.847656 C 13.957031 11.992188 13.558594 12.203125 13.175781 12.449219 C 13.152344 12.460938 13.128906 12.476562 13.109375 12.488281 C 13.03125 12.539062 12.957031 12.585938 12.882812 12.636719 C 12.792969 12.691406 12.703125 12.75 12.613281 12.808594 C 12.605469 12.8125 12.597656 12.816406 12.589844 12.820312 C 12.410156 12.9375 12.230469 13.046875 12.042969 13.148438 C 12.019531 13.164062 11.996094 13.175781 11.976562 13.1875 C 11.792969 13.292969 11.601562 13.378906 11.402344 13.449219 C 11.394531 13.453125 11.386719 13.457031 11.378906 13.460938 C 10.636719 13.726562 9.839844 13.617188 8.785156 13.378906 C 8.085938 13.21875 7.390625 13.074219 6.671875 13.207031 C 6.660156 13.207031 6.652344 13.207031 6.640625 13.210938 C 6.464844 13.242188 6.464844 13.242188 6.304688 13.316406 C 6.339844 13.597656 6.554688 13.910156 6.746094 14.109375 C 6.753906 14.121094 6.761719 14.128906 6.769531 14.136719 C 6.980469 14.351562 7.28125 14.523438 7.589844 14.535156 C 7.617188 14.535156 7.644531 14.535156 7.671875 14.535156 C 7.691406 14.535156 7.710938 14.535156 7.726562 14.535156 C 7.855469 14.535156 7.941406 14.53125 8.035156 14.441406 C 8.046875 14.429688 8.054688 14.421875 8.0625 14.410156 C 8.074219 14.398438 8.085938 14.390625 8.097656 14.378906 C 8.113281 14.363281 8.128906 14.347656 8.144531 14.328125 C 8.273438 14.199219 8.425781 14.046875 8.621094 14.039062 C 8.707031 14.042969 8.765625 14.066406 8.828125 14.128906 C 8.882812 14.191406 8.917969 14.261719 8.953125 14.335938 C 8.964844 14.359375 8.976562 14.386719 8.992188 14.410156 C 9.121094 14.671875 9.121094 14.671875 9.152344 14.796875 C 9.46875 14.820312 9.46875 14.820312 9.785156 14.832031 C 9.796875 14.832031 9.804688 14.832031 9.8125 14.832031 C 10.625 14.847656 11.464844 14.703125 13.0625 14.203125 C 13.078125 14.199219 13.078125 14.199219 13.089844 14.191406 C 13.246094 14.128906 13.394531 14.058594 13.542969 13.984375 C 13.550781 13.980469 13.5625 13.976562 13.570312 13.972656 C 13.992188 13.761719 14.433594 13.46875 14.71875 13.085938 C 14.726562 13.078125 14.734375 13.070312 14.742188 13.0625 C 14.875 12.890625 14.984375 12.699219 15.058594 12.496094 C 15.0625 12.488281 15.0625 12.480469 15.066406 12.476562 C 15.105469 12.363281 15.132812 12.246094 15.152344 12.128906 C 15.152344 12.125 15.15625 12.117188 15.15625 12.113281 C 15.179688 11.984375 15.171875 11.851562 15.167969 11.722656 C 15.152344 11.722656 15.132812 11.71875 15.117188 11.714844 C 15.105469 11.714844 15.097656 11.710938 15.085938 11.710938 C 14.863281 11.679688 14.613281 11.773438 14.40625 11.84375 Z M 15.871094 12.230469 C 15.867188 12.242188 15.867188 12.242188 15.867188 12.253906 C 15.847656 12.324219 15.828125 12.390625 15.808594 12.460938 C 15.800781 12.496094 15.789062 12.53125 15.78125 12.566406 C 15.769531 12.597656 15.761719 12.632812 15.75 12.667969 C 15.746094 12.679688 15.742188 12.695312 15.738281 12.707031 C 15.703125 12.835938 15.65625 12.957031 15.59375 13.078125 C 15.589844 13.089844 15.589844 13.089844 15.582031 13.101562 C 15.496094 13.269531 15.390625 13.417969 15.265625 13.5625 C 15.246094 13.582031 15.230469 13.605469 15.210938 13.628906 C 15.09375 13.773438 14.957031 13.902344 14.8125 14.019531 C 14.804688 14.027344 14.792969 14.035156 14.785156 14.042969 C 14.207031 14.511719 13.503906 14.820312 12.273438 15.203125 C 12.265625 15.203125 12.261719 15.207031 12.253906 15.207031 C 11.652344 15.367188 11.035156 15.480469 10.414062 15.53125 C 10.394531 15.53125 10.378906 15.535156 10.363281 15.535156 C 10.027344 15.566406 9.6875 15.5625 9.355469 15.535156 C 9.347656 15.535156 9.339844 15.535156 9.328125 15.535156 C 9.230469 15.527344 9.132812 15.515625 9.03125 15.5 C 9.023438 15.5 9.015625 15.496094 9.003906 15.496094 C 8.867188 15.472656 8.730469 15.433594 8.640625 15.324219 C 8.59375 15.257812 8.558594 15.191406 8.523438 15.117188 C 8.511719 15.089844 8.496094 15.0625 8.480469 15.035156 C 8.445312 15.039062 8.429688 15.054688 8.40625 15.082031 C 8.304688 15.175781 8.210938 15.210938 8.074219 15.226562 C 8.058594 15.230469 8.039062 15.230469 8.023438 15.234375 C 7.460938 15.304688 6.949219 15.203125 6.5 14.855469 C 6.464844 14.824219 6.425781 14.792969 6.390625 14.761719 C 6.378906 14.753906 6.378906 14.753906 6.371094 14.746094 C 6.273438 14.660156 6.179688 14.570312 6.101562 14.464844 C 6.101562 14.460938 6.097656 14.457031 6.09375 14.453125 C 6.011719 14.351562 5.949219 14.238281 5.882812 14.128906 C 5.878906 14.121094 5.875 14.113281 5.871094 14.109375 C 5.863281 14.09375 5.859375 14.082031 5.851562 14.070312 C 5.832031 14.039062 5.832031 14.039062 5.808594 14.019531 C 5.765625 14.582031 5.816406 15.128906 5.960938 15.675781 C 5.964844 15.691406 5.964844 15.691406 5.96875 15.707031 C 6.117188 16.277344 6.359375 16.84375 6.710938 17.320312 C 6.71875 17.328125 6.71875 17.328125 6.726562 17.335938 C 6.78125 17.414062 6.839844 17.488281 6.902344 17.558594 C 6.921875 17.578125 6.9375 17.597656 6.953125 17.617188 C 6.96875 17.636719 6.988281 17.65625 7.003906 17.675781 C 7.011719 17.6875 7.023438 17.695312 7.03125 17.707031 C 7.152344 17.851562 7.28125 17.992188 7.421875 18.113281 C 7.433594 18.125 7.441406 18.132812 7.453125 18.140625 C 7.550781 18.226562 7.648438 18.3125 7.757812 18.382812 C 7.765625 18.390625 7.765625 18.390625 7.773438 18.394531 C 7.800781 18.414062 7.800781 18.414062 7.832031 18.417969 C 7.832031 18.410156 7.835938 18.398438 7.839844 18.386719 C 7.871094 18.253906 7.917969 18.128906 7.972656 18.003906 C 7.976562 17.996094 7.980469 17.988281 7.984375 17.976562 C 8.078125 17.761719 8.199219 17.5625 8.347656 17.378906 C 8.351562 17.375 8.351562 17.371094 8.355469 17.367188 C 8.414062 17.292969 8.476562 17.230469 8.542969 17.164062 C 8.550781 17.15625 8.558594 17.148438 8.566406 17.140625 C 8.617188 17.089844 8.671875 17.042969 8.726562 16.996094 C 8.734375 16.992188 8.738281 16.988281 8.746094 16.984375 C 9.195312 16.625 9.761719 16.421875 10.335938 16.421875 C 10.34375 16.421875 10.347656 16.421875 10.355469 16.421875 C 10.550781 16.421875 10.738281 16.445312 10.929688 16.488281 C 10.9375 16.492188 10.941406 16.492188 10.949219 16.496094 C 11.097656 16.53125 11.230469 16.597656 11.363281 16.667969 C 11.371094 16.667969 11.378906 16.671875 11.386719 16.675781 C 11.398438 16.683594 11.410156 16.691406 11.421875 16.695312 C 11.453125 16.714844 11.453125 16.714844 11.488281 16.714844 C 11.507812 16.707031 11.515625 16.699219 11.53125 16.6875 C 11.539062 16.679688 11.539062 16.679688 11.546875 16.671875 C 11.550781 16.664062 11.554688 16.660156 11.5625 16.65625 C 11.566406 16.648438 11.570312 16.644531 11.578125 16.636719 C 11.617188 16.597656 11.65625 16.554688 11.695312 16.507812 C 11.734375 16.457031 11.785156 16.417969 11.835938 16.378906 C 11.839844 16.375 11.84375 16.371094 11.847656 16.371094 C 12.347656 15.976562 13.050781 15.828125 13.675781 15.898438 C 13.699219 15.898438 13.71875 15.902344 13.738281 15.90625 C 13.746094 15.90625 13.753906 15.90625 13.761719 15.910156 C 14.304688 15.988281 14.875 16.277344 15.238281 16.699219 C 15.253906 16.71875 15.273438 16.738281 15.289062 16.757812 C 15.371094 16.84375 15.441406 16.933594 15.507812 17.03125 C 15.535156 17.019531 15.546875 17.011719 15.5625 16.984375 C 15.566406 16.980469 15.570312 16.972656 15.574219 16.96875 C 15.578125 16.960938 15.585938 16.957031 15.589844 16.949219 C 15.59375 16.941406 15.597656 16.933594 15.601562 16.929688 C 15.6875 16.792969 15.761719 16.65625 15.835938 16.511719 C 15.84375 16.5 15.851562 16.484375 15.855469 16.46875 C 16.140625 15.929688 16.277344 15.273438 16.328125 14.667969 C 16.332031 14.65625 16.332031 14.65625 16.332031 14.644531 C 16.339844 14.535156 16.339844 14.425781 16.339844 14.316406 C 16.339844 14.304688 16.339844 14.296875 16.339844 14.285156 C 16.339844 14.113281 16.332031 13.941406 16.3125 13.773438 C 16.3125 13.765625 16.3125 13.765625 16.308594 13.753906 C 16.277344 13.484375 16.21875 13.214844 16.144531 12.953125 C 16.140625 12.941406 16.136719 12.929688 16.132812 12.921875 C 16.0625 12.683594 15.980469 12.457031 15.878906 12.230469 C 15.878906 12.230469 15.875 12.230469 15.871094 12.230469 Z M 12.15625 17.066406 C 12.148438 17.070312 12.140625 17.078125 12.136719 17.085938 C 12.0625 17.152344 12.015625 17.230469 11.976562 17.320312 C 11.972656 17.324219 11.96875 17.332031 11.96875 17.335938 C 11.953125 17.363281 11.941406 17.390625 11.929688 17.417969 C 11.894531 17.496094 11.84375 17.582031 11.757812 17.617188 C 11.753906 17.621094 11.746094 17.621094 11.742188 17.625 C 11.734375 17.625 11.726562 17.628906 11.71875 17.632812 C 11.632812 17.660156 11.535156 17.664062 11.449219 17.628906 C 11.386719 17.59375 11.339844 17.546875 11.292969 17.496094 C 11.078125 17.277344 10.773438 17.144531 10.460938 17.140625 C 9.921875 17.136719 9.410156 17.3125 9.023438 17.691406 C 8.972656 17.742188 8.925781 17.796875 8.882812 17.855469 C 8.871094 17.871094 8.859375 17.882812 8.847656 17.898438 C 8.648438 18.164062 8.492188 18.5 8.480469 18.835938 C 8.488281 18.835938 8.488281 18.835938 8.496094 18.839844 C 8.59375 18.875 8.691406 18.910156 8.789062 18.945312 C 8.835938 18.964844 8.886719 18.984375 8.9375 19.003906 C 8.945312 19.007812 8.953125 19.007812 8.960938 19.011719 C 9.109375 19.066406 9.261719 19.101562 9.410156 19.136719 C 9.4375 19.140625 9.464844 19.148438 9.492188 19.152344 C 10.195312 19.320312 10.933594 19.304688 13.527344 18.671875 C 13.535156 18.667969 13.546875 18.664062 13.558594 18.660156 C 13.691406 18.601562 13.824219 18.535156 13.949219 18.460938 C 13.957031 18.457031 13.964844 18.453125 13.972656 18.449219 C 14.082031 18.386719 14.1875 18.320312 14.289062 18.25 C 14.316406 18.234375 14.339844 18.214844 14.367188 18.199219 C 14.464844 18.132812 14.5625 18.066406 14.652344 17.988281 C 14.664062 17.980469 14.675781 17.96875 14.683594 17.960938 C 14.730469 17.925781 14.773438 17.886719 14.816406 17.847656 C 14.851562 17.8125 14.886719 17.785156 14.925781 17.753906 C 14.957031 17.730469 14.984375 17.703125 15.011719 17.679688 C 15.027344 17.667969 15.027344 17.667969 15.042969 17.65625 C 15.039062 17.617188 15.019531 17.585938 15 17.554688 C 14.996094 17.542969 14.996094 17.542969 14.992188 17.535156 C 14.875 17.335938 14.707031 17.15625 14.527344 17.015625 C 14.515625 17.007812 14.507812 17 14.5 16.992188 C 14.429688 16.9375 14.355469 16.882812 14.28125 16.835938 C 14.269531 16.828125 14.269531 16.828125 14.253906 16.820312 C 14.167969 16.773438 14.078125 16.742188 13.984375 16.710938 C 13.960938 16.703125 13.933594 16.695312 13.910156 16.6875 C 13.8125 16.65625 13.71875 16.628906 13.621094 16.617188 C 13.609375 16.613281 13.609375 16.613281 13.597656 16.613281 C 13.089844 16.550781 12.527344 16.703125 12.15625 17.066406 Z M 12.15625 17.066406 "/>
<path style=" stroke:none;fill-rule:nonzero;fill:rgb(62.352941%,29.411765%,34.509804%);fill-opacity:1;" d="M 23.675781 11.949219 C 23.78125 12.027344 23.875 12.117188 23.96875 12.207031 C 23.980469 12.21875 23.980469 12.21875 23.992188 12.230469 C 24.042969 12.28125 24.089844 12.335938 24.132812 12.394531 C 24.140625 12.402344 24.148438 12.410156 24.15625 12.421875 C 24.277344 12.574219 24.386719 12.75 24.429688 12.941406 C 24.429688 12.949219 24.433594 12.957031 24.433594 12.960938 C 24.449219 13.050781 24.449219 13.15625 24.414062 13.238281 C 24.410156 13.246094 24.40625 13.253906 24.402344 13.261719 C 24.378906 13.3125 24.34375 13.355469 24.304688 13.394531 C 24.285156 13.417969 24.269531 13.4375 24.25 13.460938 C 24.210938 13.511719 24.164062 13.558594 24.117188 13.609375 C 24.09375 13.632812 24.070312 13.660156 24.046875 13.6875 C 24.015625 13.722656 23.984375 13.757812 23.953125 13.792969 C 23.929688 13.816406 23.910156 13.835938 23.890625 13.855469 C 23.882812 13.867188 23.878906 13.875 23.871094 13.882812 C 23.855469 13.898438 23.839844 13.917969 23.824219 13.933594 C 23.769531 13.992188 23.71875 14.046875 23.664062 14.105469 C 23.644531 14.128906 23.621094 14.152344 23.601562 14.175781 C 23.59375 14.183594 23.582031 14.191406 23.574219 14.203125 C 23.570312 14.207031 23.570312 14.207031 23.5625 14.214844 C 23.421875 14.367188 23.421875 14.367188 23.410156 14.382812 C 23.402344 14.390625 23.394531 14.398438 23.382812 14.410156 C 23.363281 14.429688 23.34375 14.453125 23.320312 14.476562 C 23.246094 14.558594 23.167969 14.640625 23.09375 14.722656 C 23.070312 14.753906 23.042969 14.78125 23.015625 14.808594 C 22.992188 14.835938 22.96875 14.863281 22.945312 14.890625 C 22.914062 14.925781 22.878906 14.960938 22.847656 14.996094 C 22.824219 15.023438 22.800781 15.050781 22.773438 15.078125 C 22.734375 15.121094 22.695312 15.164062 22.65625 15.207031 C 22.636719 15.226562 22.617188 15.25 22.597656 15.269531 C 22.589844 15.28125 22.582031 15.289062 22.574219 15.296875 C 22.566406 15.300781 22.566406 15.300781 22.5625 15.308594 C 22.25 15.652344 22.25 15.652344 22.238281 15.664062 C 22.230469 15.671875 22.222656 15.679688 22.214844 15.691406 C 22.195312 15.710938 22.175781 15.734375 22.15625 15.753906 C 22.117188 15.792969 22.082031 15.832031 22.046875 15.871094 C 22.011719 15.914062 21.972656 15.953125 21.933594 15.996094 C 21.875 16.058594 21.816406 16.125 21.757812 16.1875 C 21.730469 16.21875 21.707031 16.246094 21.679688 16.273438 C 21.648438 16.308594 21.617188 16.339844 21.589844 16.375 C 21.566406 16.398438 21.542969 16.425781 21.519531 16.449219 C 21.492188 16.480469 21.460938 16.515625 21.433594 16.546875 C 21.40625 16.574219 21.382812 16.601562 21.359375 16.628906 C 21.335938 16.652344 21.316406 16.675781 21.292969 16.703125 C 21.269531 16.730469 21.242188 16.757812 21.21875 16.785156 C 21.1875 16.820312 21.15625 16.851562 21.125 16.886719 C 21.109375 16.90625 21.09375 16.925781 21.074219 16.945312 C 21.046875 16.972656 21.023438 17.003906 21 17.035156 C 20.964844 17.078125 20.929688 17.117188 20.890625 17.15625 C 20.863281 17.1875 20.835938 17.214844 20.8125 17.246094 C 20.773438 17.296875 20.730469 17.339844 20.6875 17.386719 C 20.664062 17.410156 20.640625 17.4375 20.617188 17.464844 C 20.589844 17.5 20.558594 17.53125 20.527344 17.566406 C 20.523438 17.570312 20.515625 17.578125 20.507812 17.585938 C 20.464844 17.636719 20.417969 17.6875 20.371094 17.738281 C 20.351562 17.757812 20.332031 17.78125 20.3125 17.800781 C 20.304688 17.808594 20.296875 17.820312 20.289062 17.828125 C 20.273438 17.84375 20.257812 17.859375 20.242188 17.878906 C 20.199219 17.925781 20.152344 17.976562 20.109375 18.023438 C 20.082031 18.054688 20.050781 18.085938 20.023438 18.113281 C 19.992188 18.152344 19.960938 18.1875 19.925781 18.222656 C 19.851562 18.300781 19.777344 18.382812 19.707031 18.460938 C 19.695312 18.476562 19.679688 18.492188 19.667969 18.503906 C 19.664062 18.511719 19.65625 18.519531 19.648438 18.527344 C 19.636719 18.539062 19.625 18.554688 19.609375 18.570312 C 19.582031 18.601562 19.554688 18.632812 19.523438 18.664062 C 19.488281 18.707031 19.453125 18.746094 19.417969 18.785156 C 19.40625 18.796875 19.394531 18.8125 19.378906 18.828125 C 19.226562 18.996094 19.226562 18.996094 19.210938 19.015625 C 19.195312 19.03125 19.183594 19.042969 19.171875 19.058594 C 19.117188 19.117188 19.0625 19.179688 19.007812 19.238281 C 18.96875 19.28125 18.929688 19.324219 18.890625 19.367188 C 18.851562 19.410156 18.8125 19.449219 18.777344 19.492188 C 18.75 19.519531 18.726562 19.542969 18.703125 19.570312 C 18.667969 19.609375 18.628906 19.652344 18.59375 19.691406 C 18.566406 19.722656 18.535156 19.753906 18.507812 19.78125 C 18.476562 19.816406 18.445312 19.851562 18.410156 19.886719 C 18.367188 19.9375 18.324219 19.984375 18.277344 20.03125 C 18.257812 20.054688 18.242188 20.074219 18.222656 20.097656 C 18.214844 20.105469 18.207031 20.113281 18.199219 20.121094 C 18.058594 20.273438 18.058594 20.273438 18.046875 20.285156 C 18.039062 20.292969 18.03125 20.304688 18.023438 20.3125 C 18.003906 20.332031 17.984375 20.355469 17.964844 20.375 C 17.914062 20.429688 17.867188 20.480469 17.820312 20.535156 C 17.777344 20.582031 17.738281 20.628906 17.695312 20.671875 C 17.664062 20.707031 17.632812 20.738281 17.605469 20.773438 C 17.570312 20.816406 17.53125 20.855469 17.496094 20.894531 C 17.464844 20.929688 17.433594 20.964844 17.402344 21.003906 C 17.367188 21.046875 17.332031 21.085938 17.292969 21.128906 C 17.265625 21.15625 17.238281 21.183594 17.214844 21.214844 C 17.171875 21.269531 17.125 21.316406 17.078125 21.367188 C 17.054688 21.394531 17.03125 21.417969 17.007812 21.445312 C 16.824219 21.652344 16.585938 21.789062 16.308594 21.808594 C 15.980469 21.820312 15.6875 21.6875 15.445312 21.472656 C 15.429688 21.453125 15.410156 21.4375 15.394531 21.421875 C 15.378906 21.40625 15.367188 21.394531 15.351562 21.382812 C 15.289062 21.320312 15.230469 21.25 15.179688 21.179688 C 15.175781 21.175781 15.171875 21.167969 15.167969 21.164062 C 15.003906 20.949219 14.945312 20.699219 14.980469 20.429688 C 15.011719 20.226562 15.101562 20.058594 15.230469 19.902344 C 15.234375 19.894531 15.238281 19.890625 15.242188 19.886719 C 15.292969 19.820312 15.351562 19.757812 15.410156 19.695312 C 15.425781 19.675781 15.445312 19.660156 15.460938 19.640625 C 15.503906 19.59375 15.546875 19.546875 15.589844 19.5 C 15.636719 19.453125 15.683594 19.402344 15.726562 19.351562 C 15.773438 19.300781 15.816406 19.25 15.863281 19.203125 C 15.886719 19.175781 15.910156 19.148438 15.933594 19.121094 C 15.96875 19.085938 16 19.050781 16.03125 19.015625 C 16.054688 18.988281 16.082031 18.964844 16.105469 18.9375 C 16.136719 18.902344 16.167969 18.867188 16.203125 18.832031 C 16.226562 18.804688 16.25 18.777344 16.273438 18.75 C 16.300781 18.71875 16.332031 18.6875 16.359375 18.65625 C 16.398438 18.613281 16.441406 18.566406 16.480469 18.519531 C 16.523438 18.476562 16.5625 18.429688 16.605469 18.386719 C 16.628906 18.359375 16.65625 18.328125 16.679688 18.300781 C 16.710938 18.265625 16.742188 18.230469 16.773438 18.199219 C 16.800781 18.167969 16.828125 18.136719 16.855469 18.105469 C 16.878906 18.082031 16.902344 18.054688 16.929688 18.027344 C 16.964844 17.984375 17.003906 17.945312 17.039062 17.902344 C 17.054688 17.890625 17.066406 17.875 17.078125 17.859375 C 17.085938 17.855469 17.089844 17.847656 17.097656 17.839844 C 17.613281 17.269531 17.613281 17.269531 17.628906 17.246094 C 17.644531 17.234375 17.65625 17.21875 17.667969 17.207031 C 17.703125 17.167969 17.738281 17.128906 17.773438 17.089844 C 17.804688 17.058594 17.832031 17.023438 17.863281 16.992188 C 17.886719 16.960938 17.910156 16.933594 17.9375 16.90625 C 17.957031 16.882812 17.980469 16.859375 18 16.835938 C 18.03125 16.804688 18.058594 16.769531 18.089844 16.738281 C 18.109375 16.714844 18.132812 16.691406 18.152344 16.667969 C 18.183594 16.636719 18.210938 16.601562 18.242188 16.570312 C 18.277344 16.53125 18.316406 16.488281 18.351562 16.449219 C 18.371094 16.425781 18.390625 16.40625 18.410156 16.382812 C 18.421875 16.371094 18.433594 16.355469 18.445312 16.34375 C 18.480469 16.304688 18.515625 16.265625 18.550781 16.226562 C 18.578125 16.199219 18.601562 16.171875 18.625 16.144531 C 18.65625 16.109375 18.6875 16.074219 18.71875 16.039062 C 18.757812 16 18.796875 15.957031 18.835938 15.914062 C 18.878906 15.863281 18.925781 15.816406 18.96875 15.765625 C 18.992188 15.738281 19.019531 15.710938 19.042969 15.6875 C 19.074219 15.648438 19.105469 15.613281 19.140625 15.578125 C 19.164062 15.554688 19.1875 15.527344 19.210938 15.5 C 19.246094 15.460938 19.277344 15.425781 19.3125 15.386719 C 19.339844 15.359375 19.363281 15.332031 19.390625 15.304688 C 19.425781 15.261719 19.464844 15.222656 19.503906 15.179688 C 19.527344 15.152344 19.550781 15.128906 19.574219 15.101562 C 19.578125 15.097656 19.582031 15.09375 19.585938 15.089844 C 19.597656 15.074219 19.609375 15.0625 19.621094 15.050781 C 19.675781 14.992188 19.726562 14.9375 19.777344 14.878906 C 19.820312 14.835938 19.859375 14.792969 19.898438 14.75 C 19.910156 14.738281 19.921875 14.722656 19.933594 14.710938 C 19.980469 14.660156 20.03125 14.605469 20.078125 14.550781 C 20.121094 14.503906 20.160156 14.460938 20.203125 14.414062 C 20.234375 14.382812 20.261719 14.347656 20.292969 14.316406 C 20.316406 14.289062 20.339844 14.261719 20.367188 14.234375 C 20.386719 14.210938 20.410156 14.1875 20.429688 14.160156 C 20.460938 14.128906 20.488281 14.097656 20.519531 14.0625 C 20.539062 14.039062 20.5625 14.015625 20.582031 13.992188 C 20.613281 13.960938 20.640625 13.925781 20.671875 13.894531 C 20.691406 13.871094 20.714844 13.847656 20.734375 13.824219 C 20.765625 13.789062 20.796875 13.753906 20.828125 13.722656 C 20.855469 13.691406 20.878906 13.664062 20.90625 13.636719 C 20.933594 13.605469 20.964844 13.570312 20.992188 13.539062 C 21.03125 13.5 21.066406 13.460938 21.101562 13.421875 C 21.121094 13.398438 21.144531 13.371094 21.167969 13.347656 C 21.191406 13.320312 21.21875 13.292969 21.242188 13.265625 C 21.273438 13.230469 21.304688 13.195312 21.335938 13.164062 C 21.375 13.121094 21.414062 13.078125 21.449219 13.035156 C 21.496094 12.988281 21.539062 12.9375 21.585938 12.886719 C 21.617188 12.855469 21.644531 12.820312 21.675781 12.785156 C 21.699219 12.761719 21.722656 12.738281 21.742188 12.714844 C 21.769531 12.6875 21.792969 12.660156 21.816406 12.628906 C 21.847656 12.59375 21.878906 12.5625 21.910156 12.527344 C 21.945312 12.492188 21.976562 12.457031 22.007812 12.421875 C 22.027344 12.398438 22.050781 12.375 22.074219 12.347656 C 22.097656 12.320312 22.125 12.292969 22.148438 12.265625 C 22.179688 12.230469 22.210938 12.199219 22.242188 12.164062 C 22.273438 12.128906 22.304688 12.09375 22.335938 12.058594 C 22.359375 12.035156 22.382812 12.007812 22.402344 11.984375 C 22.433594 11.953125 22.464844 11.917969 22.492188 11.886719 C 22.523438 11.851562 22.554688 11.816406 22.585938 11.785156 C 22.589844 11.777344 22.59375 11.773438 22.597656 11.765625 C 22.878906 11.457031 23.417969 11.757812 23.675781 11.949219 Z M 22.898438 12.039062 C 22.882812 12.203125 22.992188 12.347656 23.09375 12.46875 C 23.097656 12.472656 23.101562 12.476562 23.105469 12.484375 C 23.199219 12.601562 23.308594 12.714844 23.429688 12.808594 C 23.441406 12.8125 23.441406 12.8125 23.449219 12.820312 C 23.613281 12.949219 23.824219 13.097656 24.039062 13.085938 C 24.035156 12.894531 23.917969 12.734375 23.796875 12.597656 C 23.789062 12.589844 23.785156 12.585938 23.78125 12.582031 C 23.570312 12.339844 23.265625 12.082031 22.941406 12.039062 C 22.925781 12.035156 22.910156 12.035156 22.898438 12.039062 Z M 22.566406 12.382812 C 22.554688 12.398438 22.539062 12.414062 22.523438 12.429688 C 22.492188 12.464844 22.460938 12.5 22.429688 12.53125 C 22.414062 12.546875 22.402344 12.558594 22.386719 12.578125 C 22.355469 12.613281 22.324219 12.648438 22.289062 12.683594 C 22.246094 12.730469 22.203125 12.773438 22.164062 12.820312 C 22.140625 12.84375 22.117188 12.871094 22.097656 12.894531 C 22.066406 12.925781 22.035156 12.960938 22.007812 12.992188 C 21.988281 13.015625 21.96875 13.035156 21.949219 13.058594 C 21.921875 13.089844 21.890625 13.121094 21.863281 13.15625 C 21.847656 13.175781 21.828125 13.195312 21.808594 13.214844 C 21.78125 13.246094 21.753906 13.277344 21.726562 13.304688 C 21.710938 13.324219 21.691406 13.34375 21.675781 13.363281 C 21.648438 13.394531 21.625 13.421875 21.601562 13.453125 C 21.5625 13.5 21.523438 13.542969 21.480469 13.585938 C 21.449219 13.621094 21.417969 13.65625 21.386719 13.6875 C 21.367188 13.710938 21.347656 13.734375 21.328125 13.753906 C 21.300781 13.785156 21.269531 13.816406 21.242188 13.847656 C 21.210938 13.882812 21.179688 13.917969 21.144531 13.953125 C 21.121094 13.980469 21.097656 14.007812 21.074219 14.035156 C 21.042969 14.070312 21.007812 14.105469 20.976562 14.140625 C 20.953125 14.167969 20.929688 14.195312 20.90625 14.222656 C 20.855469 14.273438 20.808594 14.324219 20.761719 14.378906 C 20.722656 14.421875 20.679688 14.464844 20.640625 14.507812 C 20.59375 14.5625 20.546875 14.613281 20.5 14.664062 C 20.453125 14.714844 20.40625 14.765625 20.359375 14.816406 C 20.335938 14.847656 20.308594 14.875 20.28125 14.902344 C 20.257812 14.929688 20.234375 14.957031 20.210938 14.984375 C 20.179688 15.019531 20.144531 15.054688 20.113281 15.089844 C 20.089844 15.117188 20.066406 15.140625 20.039062 15.167969 C 20.007812 15.203125 19.976562 15.238281 19.945312 15.277344 C 19.917969 15.300781 19.894531 15.328125 19.871094 15.355469 C 19.839844 15.390625 19.808594 15.425781 19.773438 15.460938 C 19.75 15.488281 19.726562 15.515625 19.703125 15.542969 C 19.675781 15.574219 19.644531 15.605469 19.617188 15.636719 C 19.578125 15.679688 19.535156 15.726562 19.496094 15.769531 C 19.453125 15.816406 19.414062 15.863281 19.371094 15.90625 C 19.339844 15.941406 19.3125 15.972656 19.28125 16.007812 C 19.257812 16.035156 19.234375 16.0625 19.207031 16.089844 C 19.1875 16.113281 19.164062 16.136719 19.144531 16.160156 C 19.117188 16.1875 19.09375 16.214844 19.066406 16.246094 C 19.035156 16.277344 19.007812 16.3125 18.976562 16.34375 C 18.957031 16.367188 18.9375 16.386719 18.921875 16.40625 C 18.886719 16.445312 18.851562 16.484375 18.820312 16.523438 C 18.792969 16.558594 18.761719 16.59375 18.730469 16.625 C 18.679688 16.679688 18.679688 16.679688 18.671875 16.75 C 18.703125 16.925781 18.828125 17.082031 18.949219 17.210938 C 18.96875 17.234375 18.988281 17.257812 19.011719 17.28125 C 19.035156 17.308594 19.066406 17.335938 19.097656 17.363281 C 19.117188 17.378906 19.136719 17.398438 19.15625 17.417969 C 19.316406 17.5625 19.542969 17.753906 19.769531 17.753906 C 19.832031 17.746094 19.871094 17.699219 19.914062 17.65625 C 19.917969 17.648438 19.925781 17.644531 19.933594 17.636719 C 19.964844 17.601562 20 17.566406 20.03125 17.53125 C 20.054688 17.503906 20.078125 17.480469 20.101562 17.453125 C 20.132812 17.417969 20.167969 17.382812 20.199219 17.34375 C 20.21875 17.324219 20.234375 17.304688 20.253906 17.285156 C 20.273438 17.261719 20.296875 17.234375 20.320312 17.210938 C 20.347656 17.175781 20.378906 17.144531 20.40625 17.113281 C 20.421875 17.09375 20.4375 17.078125 20.453125 17.058594 C 20.484375 17.023438 20.515625 16.988281 20.550781 16.953125 C 20.574219 16.929688 20.59375 16.90625 20.617188 16.878906 C 20.648438 16.84375 20.679688 16.8125 20.710938 16.777344 C 20.746094 16.734375 20.785156 16.691406 20.824219 16.652344 C 20.867188 16.601562 20.914062 16.550781 20.957031 16.503906 C 20.996094 16.460938 21.03125 16.421875 21.070312 16.378906 C 21.109375 16.335938 21.152344 16.289062 21.191406 16.242188 C 21.21875 16.214844 21.242188 16.1875 21.269531 16.160156 C 21.296875 16.125 21.328125 16.089844 21.359375 16.058594 C 21.398438 16.015625 21.4375 15.972656 21.476562 15.929688 C 21.515625 15.886719 21.558594 15.839844 21.597656 15.792969 C 21.625 15.765625 21.648438 15.738281 21.675781 15.710938 C 21.703125 15.675781 21.734375 15.644531 21.765625 15.609375 C 21.804688 15.566406 21.84375 15.523438 21.882812 15.484375 C 21.921875 15.4375 21.964844 15.390625 22.003906 15.347656 C 22.03125 15.320312 22.054688 15.292969 22.082031 15.261719 C 22.109375 15.226562 22.140625 15.195312 22.171875 15.160156 C 22.210938 15.117188 22.25 15.078125 22.289062 15.035156 C 22.328125 14.988281 22.371094 14.941406 22.414062 14.898438 C 22.4375 14.871094 22.460938 14.84375 22.488281 14.8125 C 22.515625 14.78125 22.546875 14.746094 22.578125 14.710938 C 22.617188 14.667969 22.65625 14.628906 22.695312 14.585938 C 22.738281 14.535156 22.785156 14.484375 22.828125 14.4375 C 22.867188 14.394531 22.902344 14.355469 22.941406 14.3125 C 22.984375 14.265625 23.03125 14.214844 23.074219 14.164062 C 23.097656 14.140625 23.117188 14.117188 23.136719 14.097656 C 23.1875 14.039062 23.238281 13.988281 23.289062 13.933594 C 23.394531 13.816406 23.394531 13.816406 23.503906 13.699219 C 23.515625 13.6875 23.527344 13.675781 23.539062 13.664062 C 23.605469 13.589844 23.667969 13.515625 23.726562 13.433594 C 23.714844 13.410156 23.703125 13.410156 23.679688 13.398438 C 23.671875 13.394531 23.664062 13.390625 23.65625 13.386719 C 23.648438 13.382812 23.640625 13.378906 23.628906 13.375 C 23.542969 13.335938 23.460938 13.289062 23.378906 13.238281 C 23.371094 13.234375 23.363281 13.226562 23.355469 13.222656 C 23.140625 13.085938 22.941406 12.917969 22.789062 12.710938 C 22.777344 12.695312 22.765625 12.679688 22.753906 12.667969 C 22.6875 12.578125 22.632812 12.480469 22.578125 12.382812 C 22.574219 12.382812 22.570312 12.382812 22.566406 12.382812 Z M 18.34375 17.046875 C 18.289062 17.105469 18.289062 17.105469 18.238281 17.164062 C 18.167969 17.25 18.089844 17.328125 18.011719 17.40625 C 17.960938 17.457031 17.90625 17.507812 17.867188 17.570312 C 17.863281 17.578125 17.859375 17.585938 17.855469 17.589844 C 17.828125 17.632812 17.832031 17.679688 17.835938 17.726562 C 17.90625 17.980469 18.167969 18.230469 18.367188 18.386719 C 18.378906 18.394531 18.386719 18.402344 18.398438 18.410156 C 18.535156 18.519531 18.699219 18.640625 18.878906 18.671875 C 18.882812 18.675781 18.890625 18.675781 18.894531 18.675781 C 18.945312 18.683594 18.96875 18.671875 19.007812 18.640625 C 19.023438 18.628906 19.039062 18.613281 19.054688 18.597656 C 19.058594 18.59375 19.0625 18.589844 19.066406 18.585938 C 19.113281 18.542969 19.152344 18.5 19.195312 18.453125 C 19.207031 18.4375 19.222656 18.421875 19.238281 18.40625 C 19.261719 18.382812 19.285156 18.355469 19.308594 18.328125 C 19.328125 18.308594 19.347656 18.285156 19.367188 18.265625 C 19.449219 18.179688 19.449219 18.179688 19.503906 18.082031 C 19.5 18.078125 19.492188 18.078125 19.488281 18.074219 C 19.25 17.976562 19.039062 17.847656 18.851562 17.671875 C 18.828125 17.652344 18.804688 17.628906 18.78125 17.609375 C 18.75 17.582031 18.722656 17.554688 18.695312 17.523438 C 18.679688 17.503906 18.664062 17.484375 18.648438 17.46875 C 18.554688 17.363281 18.480469 17.253906 18.410156 17.136719 C 18.40625 17.125 18.402344 17.117188 18.394531 17.109375 C 18.390625 17.097656 18.390625 17.097656 18.382812 17.085938 C 18.371094 17.0625 18.371094 17.0625 18.34375 17.046875 Z M 17.492188 17.992188 C 17.488281 18 17.480469 18.007812 17.476562 18.011719 C 17.4375 18.054688 17.402344 18.09375 17.363281 18.136719 C 17.316406 18.183594 17.269531 18.234375 17.222656 18.285156 C 17.199219 18.3125 17.175781 18.339844 17.148438 18.363281 C 17.117188 18.398438 17.085938 18.433594 17.054688 18.46875 C 17.019531 18.507812 16.988281 18.542969 16.957031 18.578125 C 16.910156 18.625 16.867188 18.671875 16.824219 18.71875 C 16.8125 18.734375 16.800781 18.746094 16.789062 18.757812 C 16.75 18.796875 16.714844 18.835938 16.679688 18.875 C 16.648438 18.914062 16.613281 18.953125 16.578125 18.988281 C 16.554688 19.015625 16.527344 19.042969 16.503906 19.070312 C 16.472656 19.105469 16.445312 19.136719 16.414062 19.167969 C 16.378906 19.207031 16.339844 19.246094 16.304688 19.289062 C 16.285156 19.3125 16.261719 19.335938 16.238281 19.359375 C 16.199219 19.40625 16.15625 19.449219 16.117188 19.496094 C 16.078125 19.539062 16.035156 19.585938 15.992188 19.632812 C 15.964844 19.664062 15.933594 19.695312 15.90625 19.730469 C 15.882812 19.753906 15.863281 19.777344 15.84375 19.800781 C 15.8125 19.832031 15.78125 19.867188 15.75 19.902344 C 15.734375 19.921875 15.714844 19.941406 15.699219 19.957031 C 15.671875 19.988281 15.648438 20.019531 15.625 20.046875 C 15.59375 20.082031 15.566406 20.113281 15.535156 20.148438 C 15.410156 20.28125 15.355469 20.433594 15.363281 20.621094 C 15.378906 20.804688 15.464844 20.925781 15.589844 21.054688 C 15.59375 21.0625 15.601562 21.066406 15.605469 21.074219 C 15.761719 21.234375 15.980469 21.410156 16.214844 21.417969 C 16.421875 21.414062 16.558594 21.34375 16.703125 21.195312 C 16.730469 21.164062 16.757812 21.132812 16.789062 21.101562 C 16.8125 21.078125 16.835938 21.050781 16.863281 21.027344 C 16.882812 21.007812 16.902344 20.984375 16.921875 20.960938 C 16.949219 20.933594 16.972656 20.90625 17 20.875 C 17.074219 20.800781 17.144531 20.722656 17.214844 20.640625 C 17.238281 20.617188 17.257812 20.59375 17.28125 20.570312 C 17.324219 20.523438 17.363281 20.480469 17.402344 20.433594 C 17.417969 20.421875 17.429688 20.40625 17.441406 20.390625 C 17.453125 20.382812 17.453125 20.382812 17.460938 20.371094 C 17.554688 20.265625 17.652344 20.160156 17.746094 20.054688 C 17.753906 20.046875 17.757812 20.039062 17.765625 20.03125 C 17.777344 20.019531 17.792969 20.003906 17.804688 19.988281 C 17.832031 19.957031 17.863281 19.925781 17.890625 19.894531 C 17.921875 19.859375 17.953125 19.824219 17.984375 19.789062 C 18 19.769531 18.019531 19.75 18.035156 19.730469 C 18.066406 19.695312 18.097656 19.660156 18.128906 19.628906 C 18.144531 19.609375 18.164062 19.589844 18.179688 19.570312 C 18.207031 19.535156 18.238281 19.503906 18.269531 19.46875 C 18.289062 19.449219 18.304688 19.429688 18.320312 19.410156 C 18.351562 19.378906 18.382812 19.34375 18.410156 19.3125 C 18.421875 19.300781 18.433594 19.289062 18.445312 19.277344 C 18.46875 19.253906 18.488281 19.230469 18.511719 19.207031 C 18.566406 19.148438 18.621094 19.085938 18.671875 19.019531 C 18.644531 18.996094 18.613281 18.980469 18.582031 18.964844 C 18.570312 18.957031 18.558594 18.953125 18.546875 18.945312 C 18.539062 18.945312 18.53125 18.941406 18.527344 18.9375 C 18.332031 18.839844 18.160156 18.734375 18 18.585938 C 17.988281 18.570312 17.972656 18.558594 17.960938 18.546875 C 17.914062 18.503906 17.867188 18.460938 17.828125 18.410156 C 17.816406 18.398438 17.816406 18.398438 17.804688 18.386719 C 17.710938 18.277344 17.632812 18.160156 17.558594 18.035156 C 17.554688 18.027344 17.550781 18.019531 17.542969 18.011719 C 17.539062 18.007812 17.535156 18 17.53125 17.992188 C 17.53125 17.988281 17.527344 17.984375 17.523438 17.980469 C 17.503906 17.976562 17.503906 17.976562 17.492188 17.992188 Z M 17.492188 17.992188 "/>
<path style=" stroke:none;fill-rule:nonzero;fill:rgb(12.941176%,22.352941%,35.686275%);fill-opacity:1;" d="M 14.890625 8.660156 C 14.902344 8.667969 14.902344 8.667969 14.910156 8.675781 C 15.011719 8.753906 15.105469 8.835938 15.195312 8.921875 C 15.199219 8.925781 15.203125 8.929688 15.207031 8.933594 C 15.34375 9.0625 15.480469 9.214844 15.492188 9.410156 C 15.492188 9.515625 15.445312 9.601562 15.375 9.679688 C 15.308594 9.75 15.195312 9.761719 15.101562 9.761719 C 15.027344 9.761719 14.976562 9.746094 14.914062 9.699219 C 14.90625 9.695312 14.898438 9.6875 14.890625 9.683594 C 14.859375 9.65625 14.835938 9.625 14.808594 9.589844 C 14.703125 9.460938 14.582031 9.339844 14.449219 9.234375 C 14.433594 9.222656 14.417969 9.210938 14.40625 9.195312 C 14.175781 9.011719 13.878906 8.90625 13.582031 8.933594 C 13.382812 8.957031 13.199219 9.035156 13.042969 9.167969 C 13.035156 9.175781 13.03125 9.179688 13.023438 9.1875 C 12.96875 9.230469 12.925781 9.28125 12.882812 9.335938 C 12.878906 9.339844 12.875 9.347656 12.875 9.351562 C 12.832031 9.402344 12.796875 9.457031 12.765625 9.519531 C 12.765625 9.523438 12.761719 9.53125 12.757812 9.535156 C 12.730469 9.59375 12.703125 9.652344 12.675781 9.714844 C 12.667969 9.734375 12.65625 9.75 12.648438 9.769531 C 12.621094 9.832031 12.59375 9.894531 12.566406 9.957031 C 12.558594 9.96875 12.554688 9.980469 12.550781 9.992188 C 12.539062 10.011719 12.53125 10.035156 12.523438 10.054688 C 12.476562 10.160156 12.421875 10.226562 12.316406 10.269531 C 12.210938 10.3125 12.097656 10.304688 11.996094 10.257812 C 11.90625 10.210938 11.851562 10.128906 11.820312 10.03125 C 11.761719 9.738281 12.003906 9.347656 12.15625 9.113281 C 12.230469 9.003906 12.308594 8.898438 12.398438 8.796875 C 12.414062 8.78125 12.429688 8.765625 12.445312 8.746094 C 12.523438 8.65625 12.617188 8.578125 12.714844 8.507812 C 12.71875 8.503906 12.722656 8.5 12.726562 8.496094 C 13.386719 8.023438 14.21875 8.144531 14.890625 8.660156 Z M 14.890625 8.660156 "/>
<path style=" stroke:none;fill-rule:nonzero;fill:rgb(12.941176%,22.352941%,35.686275%);fill-opacity:1;" d="M 8.375 9.957031 C 8.488281 10.058594 8.601562 10.164062 8.695312 10.285156 C 8.699219 10.292969 8.707031 10.300781 8.710938 10.308594 C 8.792969 10.410156 8.855469 10.523438 8.847656 10.65625 C 8.828125 10.75 8.777344 10.839844 8.703125 10.898438 C 8.617188 10.953125 8.5 10.972656 8.398438 10.960938 C 8.265625 10.929688 8.160156 10.800781 8.074219 10.703125 C 7.835938 10.429688 7.511719 10.148438 7.128906 10.121094 C 6.878906 10.109375 6.632812 10.167969 6.445312 10.335938 C 6.429688 10.351562 6.414062 10.363281 6.398438 10.378906 C 6.394531 10.382812 6.386719 10.386719 6.382812 10.394531 C 6.15625 10.609375 6.027344 10.867188 5.914062 11.15625 C 5.867188 11.269531 5.820312 11.390625 5.707031 11.453125 C 5.597656 11.5 5.476562 11.503906 5.367188 11.464844 C 5.328125 11.449219 5.300781 11.429688 5.273438 11.402344 C 5.269531 11.398438 5.265625 11.394531 5.261719 11.390625 C 5.183594 11.3125 5.167969 11.207031 5.167969 11.101562 C 5.183594 10.734375 5.46875 10.339844 5.695312 10.066406 C 5.703125 10.058594 5.703125 10.058594 5.710938 10.050781 C 6.011719 9.6875 6.421875 9.4375 6.898438 9.390625 C 7.457031 9.34375 7.964844 9.597656 8.375 9.957031 Z M 8.375 9.957031 "/>
<path style=" stroke:none;fill-rule:nonzero;fill:rgb(62.352941%,29.411765%,34.509804%);fill-opacity:1;" d="M 22.453125 12.765625 C 22.484375 12.773438 22.507812 12.785156 22.535156 12.808594 C 22.539062 12.8125 22.542969 12.816406 22.550781 12.820312 C 22.558594 12.832031 22.558594 12.832031 22.558594 12.855469 C 22.53125 12.96875 22.40625 13.078125 22.332031 13.160156 C 22.316406 13.179688 22.300781 13.195312 22.28125 13.214844 C 22.261719 13.242188 22.234375 13.265625 22.210938 13.292969 C 22.195312 13.308594 22.183594 13.320312 22.167969 13.335938 C 22.140625 13.371094 22.109375 13.402344 22.078125 13.433594 C 22.042969 13.46875 22.007812 13.503906 21.972656 13.542969 C 21.953125 13.570312 21.925781 13.59375 21.902344 13.621094 C 21.871094 13.65625 21.835938 13.691406 21.804688 13.730469 C 21.785156 13.753906 21.761719 13.777344 21.742188 13.796875 C 21.714844 13.824219 21.691406 13.855469 21.667969 13.882812 C 21.636719 13.914062 21.609375 13.949219 21.578125 13.980469 C 21.542969 14.019531 21.503906 14.0625 21.46875 14.101562 C 21.453125 14.117188 21.441406 14.132812 21.429688 14.144531 C 21.421875 14.152344 21.417969 14.160156 21.410156 14.167969 C 21.277344 14.3125 21.277344 14.3125 21.257812 14.335938 C 21.246094 14.347656 21.234375 14.363281 21.21875 14.378906 C 21.183594 14.417969 21.148438 14.453125 21.113281 14.492188 C 21.085938 14.527344 21.054688 14.558594 21.027344 14.59375 C 21 14.621094 20.976562 14.648438 20.953125 14.675781 C 20.929688 14.699219 20.910156 14.722656 20.886719 14.746094 C 20.859375 14.777344 20.828125 14.8125 20.800781 14.84375 C 20.777344 14.871094 20.75 14.898438 20.726562 14.921875 C 20.699219 14.953125 20.671875 14.984375 20.640625 15.015625 C 20.636719 15.019531 20.632812 15.023438 20.628906 15.03125 C 20.613281 15.050781 20.59375 15.070312 20.574219 15.089844 C 20.539062 15.128906 20.503906 15.167969 20.472656 15.207031 C 20.445312 15.238281 20.421875 15.269531 20.394531 15.300781 C 20.386719 15.3125 20.386719 15.3125 20.378906 15.320312 C 20.34375 15.351562 20.320312 15.363281 20.273438 15.363281 C 20.234375 15.359375 20.199219 15.335938 20.171875 15.304688 C 20.164062 15.273438 20.171875 15.261719 20.1875 15.234375 C 20.195312 15.226562 20.203125 15.214844 20.210938 15.207031 C 20.214844 15.199219 20.214844 15.199219 20.222656 15.191406 C 20.28125 15.113281 20.34375 15.039062 20.410156 14.960938 C 20.425781 14.941406 20.441406 14.921875 20.460938 14.902344 C 20.507812 14.847656 20.558594 14.789062 20.609375 14.734375 C 20.632812 14.710938 20.652344 14.6875 20.675781 14.660156 C 20.707031 14.621094 20.746094 14.585938 20.78125 14.546875 C 20.808594 14.519531 20.835938 14.488281 20.863281 14.457031 C 20.898438 14.417969 20.9375 14.378906 20.972656 14.335938 C 21.003906 14.304688 21.035156 14.269531 21.066406 14.234375 C 21.109375 14.191406 21.148438 14.148438 21.1875 14.105469 C 21.257812 14.03125 21.328125 13.960938 21.394531 13.882812 C 21.410156 13.863281 21.429688 13.84375 21.445312 13.824219 C 21.46875 13.796875 21.492188 13.773438 21.515625 13.746094 C 21.542969 13.714844 21.570312 13.683594 21.601562 13.648438 C 21.617188 13.632812 21.632812 13.613281 21.648438 13.59375 C 21.683594 13.554688 21.71875 13.515625 21.753906 13.476562 C 21.769531 13.460938 21.78125 13.449219 21.792969 13.433594 C 21.871094 13.347656 21.871094 13.347656 21.886719 13.328125 C 21.902344 13.3125 21.914062 13.300781 21.925781 13.285156 C 21.972656 13.234375 22.019531 13.183594 22.066406 13.132812 C 22.074219 13.125 22.082031 13.117188 22.089844 13.109375 C 22.140625 13.050781 22.195312 12.992188 22.25 12.9375 C 22.253906 12.929688 22.261719 12.921875 22.265625 12.917969 C 22.300781 12.878906 22.335938 12.84375 22.371094 12.808594 C 22.378906 12.800781 22.378906 12.800781 22.386719 12.792969 C 22.410156 12.773438 22.421875 12.765625 22.453125 12.765625 Z M 22.453125 12.765625 "/>
<path style=" stroke:none;fill-rule:nonzero;fill:rgb(62.352941%,29.411765%,34.509804%);fill-opacity:1;" d="M 24.640625 9.835938 C 24.707031 9.867188 24.769531 9.902344 24.832031 9.9375 C 24.84375 9.945312 24.851562 9.949219 24.859375 9.953125 C 24.871094 9.960938 24.878906 9.964844 24.886719 9.96875 C 24.894531 9.976562 24.902344 9.980469 24.910156 9.984375 C 24.929688 9.996094 24.929688 9.996094 24.9375 10.023438 C 24.929688 10.042969 24.929688 10.042969 24.917969 10.066406 C 24.910156 10.074219 24.90625 10.085938 24.902344 10.09375 C 24.894531 10.109375 24.894531 10.109375 24.886719 10.121094 C 24.878906 10.132812 24.875 10.140625 24.871094 10.152344 C 24.832031 10.222656 24.789062 10.292969 24.75 10.363281 C 24.714844 10.425781 24.683594 10.484375 24.648438 10.546875 C 24.609375 10.625 24.566406 10.703125 24.523438 10.78125 C 24.484375 10.847656 24.449219 10.914062 24.414062 10.980469 C 24.375 11.046875 24.335938 11.113281 24.300781 11.183594 C 24.261719 11.246094 24.226562 11.3125 24.191406 11.378906 C 24.160156 11.363281 24.125 11.347656 24.09375 11.328125 C 24.089844 11.328125 24.082031 11.324219 24.078125 11.320312 C 24.066406 11.316406 24.054688 11.308594 24.042969 11.304688 C 24.027344 11.292969 24.007812 11.285156 23.992188 11.273438 C 23.980469 11.269531 23.96875 11.261719 23.960938 11.257812 C 23.953125 11.253906 23.949219 11.25 23.945312 11.25 C 23.921875 11.238281 23.90625 11.226562 23.894531 11.207031 C 23.886719 11.183594 23.898438 11.167969 23.910156 11.144531 C 23.914062 11.136719 23.914062 11.136719 23.921875 11.128906 C 23.929688 11.113281 23.9375 11.101562 23.945312 11.085938 C 23.949219 11.078125 23.953125 11.070312 23.957031 11.0625 C 23.984375 11.023438 24.003906 10.980469 24.027344 10.9375 C 24.042969 10.910156 24.058594 10.882812 24.074219 10.859375 C 24.078125 10.847656 24.085938 10.835938 24.089844 10.824219 C 24.113281 10.785156 24.136719 10.742188 24.160156 10.699219 C 24.171875 10.679688 24.183594 10.660156 24.191406 10.640625 C 24.21875 10.59375 24.246094 10.546875 24.269531 10.5 C 24.285156 10.472656 24.296875 10.449219 24.3125 10.421875 C 24.316406 10.417969 24.320312 10.410156 24.320312 10.40625 C 24.359375 10.335938 24.398438 10.265625 24.4375 10.195312 C 24.472656 10.128906 24.511719 10.0625 24.546875 9.992188 C 24.554688 9.984375 24.558594 9.976562 24.5625 9.96875 C 24.585938 9.925781 24.613281 9.878906 24.640625 9.835938 Z M 24.640625 9.835938 "/>
<path style=" stroke:none;fill-rule:nonzero;fill:rgb(62.352941%,29.411765%,34.509804%);fill-opacity:1;" d="M 20.25 11.0625 C 20.285156 11.070312 20.316406 11.082031 20.351562 11.097656 C 20.355469 11.101562 20.363281 11.105469 20.367188 11.109375 C 20.386719 11.117188 20.40625 11.125 20.425781 11.136719 C 20.4375 11.140625 20.453125 11.148438 20.464844 11.15625 C 20.496094 11.167969 20.523438 11.183594 20.550781 11.195312 C 20.613281 11.226562 20.675781 11.253906 20.738281 11.285156 C 20.757812 11.292969 20.777344 11.300781 20.796875 11.3125 C 20.890625 11.355469 20.984375 11.402344 21.078125 11.445312 C 21.191406 11.496094 21.300781 11.550781 21.414062 11.601562 C 21.5 11.644531 21.585938 11.683594 21.671875 11.722656 C 21.664062 11.765625 21.652344 11.800781 21.636719 11.835938 C 21.632812 11.84375 21.632812 11.847656 21.628906 11.855469 C 21.621094 11.867188 21.617188 11.878906 21.613281 11.890625 C 21.605469 11.910156 21.59375 11.925781 21.585938 11.945312 C 21.582031 11.957031 21.578125 11.96875 21.570312 11.980469 C 21.570312 11.988281 21.566406 11.992188 21.5625 11.996094 C 21.558594 12.011719 21.550781 12.023438 21.542969 12.039062 C 21.511719 12.046875 21.5 12.039062 21.472656 12.023438 C 21.464844 12.023438 21.457031 12.019531 21.453125 12.015625 C 21.445312 12.011719 21.4375 12.007812 21.429688 12.003906 C 21.417969 12 21.402344 11.992188 21.386719 11.984375 C 21.351562 11.964844 21.3125 11.945312 21.273438 11.925781 C 21.265625 11.921875 21.265625 11.921875 21.253906 11.917969 C 21.191406 11.886719 21.128906 11.859375 21.066406 11.828125 C 20.976562 11.785156 20.886719 11.742188 20.792969 11.699219 C 20.691406 11.648438 20.589844 11.601562 20.488281 11.554688 C 20.367188 11.496094 20.242188 11.4375 20.121094 11.378906 C 20.125 11.335938 20.140625 11.300781 20.15625 11.265625 C 20.160156 11.253906 20.160156 11.253906 20.164062 11.246094 C 20.171875 11.226562 20.179688 11.210938 20.191406 11.191406 C 20.195312 11.179688 20.199219 11.167969 20.207031 11.15625 C 20.21875 11.125 20.234375 11.09375 20.25 11.0625 Z M 20.25 11.0625 "/>
<path style=" stroke:none;fill-rule:nonzero;fill:rgb(62.352941%,29.411765%,34.509804%);fill-opacity:1;" d="M 21.542969 9.777344 C 21.625 9.820312 21.664062 9.90625 21.707031 9.984375 C 21.75 10.070312 21.800781 10.148438 21.851562 10.230469 C 21.875 10.265625 21.898438 10.300781 21.917969 10.335938 C 21.957031 10.402344 21.996094 10.464844 22.035156 10.527344 C 22.085938 10.609375 22.136719 10.6875 22.1875 10.769531 C 22.210938 10.8125 22.238281 10.855469 22.265625 10.898438 C 22.277344 10.917969 22.292969 10.9375 22.304688 10.957031 C 22.3125 10.972656 22.320312 10.988281 22.332031 11 C 22.335938 11.007812 22.339844 11.019531 22.347656 11.027344 C 22.351562 11.035156 22.355469 11.042969 22.363281 11.050781 C 22.375 11.074219 22.378906 11.097656 22.382812 11.121094 C 22.316406 11.167969 22.253906 11.210938 22.1875 11.246094 C 22.179688 11.25 22.175781 11.25 22.171875 11.253906 C 22.140625 11.269531 22.117188 11.277344 22.085938 11.285156 C 22.082031 11.277344 22.078125 11.269531 22.074219 11.265625 C 21.988281 11.117188 21.988281 11.117188 21.898438 10.972656 C 21.863281 10.917969 21.828125 10.859375 21.796875 10.804688 C 21.792969 10.800781 21.789062 10.792969 21.785156 10.789062 C 21.773438 10.769531 21.761719 10.75 21.75 10.726562 C 21.71875 10.679688 21.691406 10.632812 21.660156 10.582031 C 21.652344 10.566406 21.640625 10.550781 21.632812 10.535156 C 21.625 10.527344 21.621094 10.519531 21.617188 10.511719 C 21.601562 10.488281 21.589844 10.464844 21.574219 10.441406 C 21.53125 10.371094 21.492188 10.304688 21.449219 10.234375 C 21.445312 10.230469 21.441406 10.226562 21.441406 10.222656 C 21.425781 10.199219 21.410156 10.175781 21.394531 10.152344 C 21.378906 10.125 21.363281 10.097656 21.347656 10.074219 C 21.34375 10.0625 21.335938 10.054688 21.332031 10.046875 C 21.324219 10.035156 21.320312 10.027344 21.316406 10.019531 C 21.308594 10.007812 21.304688 10 21.300781 9.992188 C 21.289062 9.972656 21.289062 9.972656 21.289062 9.945312 C 21.304688 9.933594 21.304688 9.933594 21.324219 9.921875 C 21.332031 9.917969 21.339844 9.914062 21.347656 9.90625 C 21.355469 9.902344 21.367188 9.898438 21.375 9.894531 C 21.433594 9.859375 21.488281 9.820312 21.542969 9.777344 Z M 21.542969 9.777344 "/>
<path style=" stroke:none;fill-rule:nonzero;fill:rgb(62.352941%,29.411765%,34.509804%);fill-opacity:1;" d="M 23.21875 9.421875 C 23.222656 9.445312 23.222656 9.445312 23.226562 9.480469 C 23.226562 9.484375 23.226562 9.492188 23.226562 9.5 C 23.230469 9.519531 23.230469 9.539062 23.234375 9.5625 C 23.234375 9.574219 23.238281 9.589844 23.238281 9.605469 C 23.242188 9.644531 23.246094 9.6875 23.25 9.726562 C 23.253906 9.769531 23.257812 9.8125 23.261719 9.855469 C 23.265625 9.925781 23.273438 9.996094 23.277344 10.066406 C 23.285156 10.160156 23.292969 10.25 23.304688 10.339844 C 23.308594 10.417969 23.316406 10.496094 23.324219 10.578125 C 23.324219 10.59375 23.328125 10.609375 23.328125 10.625 C 23.332031 10.675781 23.335938 10.722656 23.339844 10.769531 C 23.34375 10.785156 23.34375 10.800781 23.34375 10.816406 C 23.347656 10.835938 23.347656 10.855469 23.351562 10.875 C 23.351562 10.886719 23.351562 10.898438 23.351562 10.90625 C 23.355469 10.929688 23.355469 10.957031 23.355469 10.980469 C 23.246094 10.988281 23.136719 10.996094 23.023438 11.003906 C 23.011719 10.964844 23.003906 10.9375 23.003906 10.898438 C 23 10.886719 23 10.878906 23 10.871094 C 23 10.859375 22.996094 10.851562 22.996094 10.839844 C 22.996094 10.828125 22.996094 10.820312 22.996094 10.808594 C 22.992188 10.777344 22.988281 10.75 22.988281 10.722656 C 22.984375 10.691406 22.980469 10.660156 22.976562 10.628906 C 22.972656 10.574219 22.96875 10.515625 22.960938 10.457031 C 22.953125 10.355469 22.945312 10.25 22.933594 10.148438 C 22.933594 10.113281 22.929688 10.078125 22.925781 10.042969 C 22.914062 9.902344 22.914062 9.902344 22.898438 9.757812 C 22.898438 9.75 22.898438 9.738281 22.894531 9.726562 C 22.894531 9.707031 22.890625 9.683594 22.890625 9.664062 C 22.882812 9.589844 22.878906 9.519531 22.882812 9.445312 C 22.90625 9.433594 22.9375 9.433594 22.964844 9.433594 C 22.976562 9.429688 22.976562 9.429688 22.984375 9.429688 C 23 9.429688 23.015625 9.425781 23.027344 9.425781 C 23.050781 9.425781 23.070312 9.421875 23.09375 9.421875 C 23.105469 9.417969 23.121094 9.417969 23.136719 9.417969 C 23.144531 9.417969 23.144531 9.417969 23.15625 9.414062 C 23.199219 9.414062 23.199219 9.414062 23.21875 9.421875 Z M 23.21875 9.421875 "/>
<path style=" stroke:none;fill-rule:nonzero;fill:rgb(62.352941%,29.411765%,34.509804%);fill-opacity:1;" d="M 21.382812 18.554688 C 21.410156 18.566406 21.414062 18.570312 21.433594 18.59375 C 21.4375 18.601562 21.441406 18.605469 21.445312 18.613281 C 21.453125 18.621094 21.457031 18.628906 21.460938 18.632812 C 21.472656 18.648438 21.484375 18.664062 21.492188 18.679688 C 21.5 18.6875 21.503906 18.695312 21.511719 18.703125 C 21.53125 18.730469 21.550781 18.757812 21.570312 18.785156 C 21.617188 18.847656 21.664062 18.910156 21.707031 18.976562 C 21.738281 19.019531 21.769531 19.0625 21.800781 19.105469 C 21.855469 19.179688 21.90625 19.253906 21.960938 19.328125 C 21.980469 19.359375 22 19.386719 22.019531 19.414062 C 22.066406 19.484375 22.117188 19.554688 22.167969 19.625 C 22.175781 19.636719 22.175781 19.636719 22.183594 19.648438 C 22.195312 19.664062 22.203125 19.679688 22.214844 19.695312 C 22.222656 19.707031 22.230469 19.71875 22.242188 19.730469 C 22.261719 19.761719 22.261719 19.761719 22.261719 19.78125 C 22.253906 19.804688 22.242188 19.8125 22.222656 19.824219 C 22.21875 19.828125 22.210938 19.835938 22.203125 19.839844 C 22.195312 19.847656 22.195312 19.847656 22.183594 19.851562 C 22.171875 19.859375 22.171875 19.859375 22.164062 19.867188 C 22.113281 19.902344 22.0625 19.9375 22.007812 19.96875 C 21.972656 19.9375 21.945312 19.902344 21.921875 19.863281 C 21.910156 19.847656 21.902344 19.835938 21.894531 19.824219 C 21.886719 19.816406 21.882812 19.808594 21.878906 19.800781 C 21.855469 19.769531 21.832031 19.738281 21.8125 19.707031 C 21.804688 19.699219 21.800781 19.695312 21.796875 19.6875 C 21.789062 19.675781 21.777344 19.664062 21.769531 19.648438 C 21.746094 19.617188 21.722656 19.585938 21.699219 19.550781 C 21.695312 19.546875 21.6875 19.539062 21.683594 19.53125 C 21.652344 19.488281 21.625 19.449219 21.59375 19.40625 C 21.5625 19.363281 21.535156 19.324219 21.507812 19.285156 C 21.46875 19.234375 21.433594 19.183594 21.398438 19.136719 C 21.363281 19.085938 21.328125 19.035156 21.292969 18.988281 C 21.289062 18.980469 21.285156 18.976562 21.28125 18.96875 C 21.257812 18.933594 21.230469 18.902344 21.207031 18.867188 C 21.203125 18.859375 21.195312 18.855469 21.191406 18.847656 C 21.183594 18.832031 21.171875 18.820312 21.164062 18.804688 C 21.15625 18.800781 21.152344 18.792969 21.148438 18.789062 C 21.144531 18.78125 21.140625 18.777344 21.136719 18.773438 C 21.128906 18.757812 21.128906 18.757812 21.128906 18.742188 C 21.140625 18.730469 21.140625 18.730469 21.160156 18.714844 C 21.167969 18.710938 21.175781 18.707031 21.179688 18.703125 C 21.1875 18.695312 21.195312 18.691406 21.203125 18.683594 C 21.21875 18.675781 21.234375 18.664062 21.246094 18.652344 C 21.253906 18.648438 21.261719 18.644531 21.269531 18.636719 C 21.285156 18.625 21.304688 18.613281 21.320312 18.601562 C 21.328125 18.59375 21.335938 18.585938 21.34375 18.582031 C 21.351562 18.574219 21.359375 18.570312 21.367188 18.566406 C 21.371094 18.5625 21.375 18.558594 21.382812 18.554688 Z M 21.382812 18.554688 "/>
<path style=" stroke:none;fill-rule:nonzero;fill:rgb(62.352941%,29.411765%,34.509804%);fill-opacity:1;" d="M 21.949219 17.800781 C 21.988281 17.8125 22.027344 17.832031 22.0625 17.851562 C 22.066406 17.851562 22.074219 17.855469 22.078125 17.859375 C 22.097656 17.871094 22.117188 17.878906 22.136719 17.890625 C 22.148438 17.898438 22.164062 17.902344 22.175781 17.910156 C 22.253906 17.953125 22.328125 17.992188 22.40625 18.035156 C 22.46875 18.070312 22.527344 18.101562 22.589844 18.132812 C 22.59375 18.136719 22.601562 18.140625 22.605469 18.144531 C 22.628906 18.15625 22.65625 18.167969 22.679688 18.183594 C 22.730469 18.210938 22.78125 18.238281 22.832031 18.265625 C 22.839844 18.269531 22.851562 18.273438 22.859375 18.28125 C 22.953125 18.328125 23.050781 18.378906 23.144531 18.429688 C 23.1875 18.457031 23.234375 18.480469 23.277344 18.503906 C 23.265625 18.535156 23.253906 18.5625 23.238281 18.589844 C 23.234375 18.601562 23.234375 18.601562 23.226562 18.613281 C 23.222656 18.621094 23.21875 18.628906 23.210938 18.640625 C 23.207031 18.648438 23.203125 18.65625 23.199219 18.664062 C 23.175781 18.707031 23.152344 18.75 23.125 18.792969 C 23.089844 18.78125 23.054688 18.765625 23.019531 18.746094 C 23.015625 18.746094 23.011719 18.742188 23.003906 18.738281 C 22.988281 18.730469 22.972656 18.71875 22.953125 18.710938 C 22.941406 18.703125 22.929688 18.699219 22.917969 18.691406 C 22.890625 18.679688 22.867188 18.664062 22.84375 18.652344 C 22.804688 18.632812 22.769531 18.613281 22.734375 18.59375 C 22.730469 18.589844 22.722656 18.589844 22.71875 18.585938 C 22.707031 18.578125 22.695312 18.574219 22.683594 18.566406 C 22.585938 18.515625 22.488281 18.460938 22.386719 18.410156 C 22.316406 18.371094 22.242188 18.332031 22.167969 18.292969 C 22.132812 18.273438 22.097656 18.253906 22.058594 18.234375 C 22.03125 18.21875 22.003906 18.207031 21.976562 18.191406 C 21.949219 18.175781 21.917969 18.160156 21.890625 18.144531 C 21.882812 18.140625 21.871094 18.136719 21.863281 18.132812 C 21.855469 18.128906 21.847656 18.125 21.839844 18.121094 C 21.835938 18.117188 21.828125 18.113281 21.820312 18.109375 C 21.804688 18.097656 21.804688 18.097656 21.796875 18.074219 C 21.808594 18.050781 21.808594 18.050781 21.820312 18.023438 C 21.828125 18.015625 21.832031 18.003906 21.835938 17.996094 C 21.839844 17.988281 21.84375 17.984375 21.84375 17.980469 C 21.855469 17.964844 21.863281 17.949219 21.871094 17.933594 C 21.894531 17.890625 21.921875 17.84375 21.949219 17.800781 Z M 21.949219 17.800781 "/>
<path style=" stroke:none;fill-rule:nonzero;fill:rgb(62.352941%,29.411765%,34.509804%);fill-opacity:1;" d="M 20.363281 18.808594 C 20.375 18.808594 20.375 18.808594 20.382812 18.808594 C 20.402344 18.808594 20.421875 18.808594 20.441406 18.808594 C 20.453125 18.808594 20.46875 18.808594 20.480469 18.808594 C 20.511719 18.808594 20.546875 18.808594 20.578125 18.808594 C 20.585938 18.882812 20.589844 18.953125 20.589844 19.023438 C 20.589844 19.035156 20.589844 19.046875 20.589844 19.058594 C 20.589844 19.085938 20.59375 19.117188 20.59375 19.144531 C 20.59375 19.175781 20.59375 19.207031 20.59375 19.238281 C 20.597656 19.292969 20.597656 19.34375 20.597656 19.398438 C 20.601562 19.457031 20.601562 19.515625 20.601562 19.578125 C 20.605469 19.636719 20.605469 19.695312 20.605469 19.753906 C 20.605469 19.777344 20.605469 19.800781 20.609375 19.824219 C 20.613281 19.988281 20.613281 20.148438 20.613281 20.308594 C 20.570312 20.3125 20.53125 20.316406 20.488281 20.316406 C 20.480469 20.316406 20.480469 20.316406 20.472656 20.316406 C 20.453125 20.316406 20.4375 20.316406 20.417969 20.316406 C 20.40625 20.316406 20.394531 20.316406 20.382812 20.316406 C 20.351562 20.316406 20.320312 20.316406 20.289062 20.316406 C 20.285156 20.179688 20.277344 20.042969 20.277344 19.90625 C 20.277344 19.882812 20.273438 19.859375 20.273438 19.835938 C 20.273438 19.777344 20.273438 19.722656 20.269531 19.667969 C 20.269531 19.609375 20.269531 19.554688 20.265625 19.496094 C 20.265625 19.445312 20.265625 19.398438 20.261719 19.347656 C 20.261719 19.316406 20.261719 19.289062 20.261719 19.257812 C 20.257812 19.113281 20.257812 18.964844 20.257812 18.816406 C 20.292969 18.808594 20.328125 18.808594 20.363281 18.808594 Z M 20.363281 18.808594 "/>
<path style=" stroke:none;fill-rule:nonzero;fill:rgb(61.960784%,29.411765%,34.509804%);fill-opacity:1;" d="M 19.894531 15.636719 C 19.921875 15.652344 19.941406 15.667969 19.960938 15.695312 C 19.964844 15.746094 19.9375 15.789062 19.910156 15.828125 C 19.875 15.867188 19.839844 15.90625 19.804688 15.941406 C 19.785156 15.964844 19.761719 15.988281 19.742188 16.011719 C 19.71875 16.039062 19.699219 16.042969 19.667969 16.046875 C 19.625 16.042969 19.601562 16.035156 19.574219 16.003906 C 19.554688 15.980469 19.550781 15.964844 19.554688 15.929688 C 19.578125 15.875 19.617188 15.832031 19.664062 15.789062 C 19.679688 15.773438 19.695312 15.753906 19.710938 15.734375 C 19.816406 15.613281 19.816406 15.613281 19.894531 15.636719 Z M 19.894531 15.636719 "/>
</g>
</svg>
